<svg width="24" height="24" viewBox="0 0 24 24" fill="none" xmlns="http://www.w3.org/2000/svg">
<path d="M18.1302 9.61124V7.19438H5.86979V9.61124H18.1302ZM18.1302 14.3888V12.0281H5.86979V14.3888H18.1302ZM14.4635 19.2225V16.8056H5.86979V19.2225H14.4635ZM12.8594 2.7541C12.6302 2.52927 12.3437 2.41686 12 2.41686C11.6562 2.41686 11.3698 2.52927 11.1406 2.7541C10.9115 2.97892 10.7969 3.25995 10.7969 3.59719C10.7969 3.93443 10.9115 4.23419 11.1406 4.49649C11.3698 4.72131 11.6562 4.83372 12 4.83372C12.3437 4.83372 12.6302 4.72131 12.8594 4.49649C13.0885 4.23419 13.2031 3.93443 13.2031 3.59719C13.2031 3.25995 13.0885 2.97892 12.8594 2.7541ZM20.5365 2.41686C21.1858 2.41686 21.7587 2.66042 22.2552 3.14754C22.7517 3.63466 23 4.19672 23 4.83372V21.5831C23 22.2201 22.7517 22.7822 22.2552 23.2693C21.7587 23.7564 21.1858 24 20.5365 24H3.46354C2.81424 24 2.24132 23.7564 1.74479 23.2693C1.24826 22.7822 1 22.2201 1 21.5831V4.83372C1 4.19672 1.24826 3.63466 1.74479 3.14754C2.24132 2.66042 2.81424 2.41686 3.46354 2.41686H8.5625C8.82986 1.70492 9.2691 1.12412 9.88021 0.674473C10.4913 0.224824 11.1979 0 12 0C12.8021 0 13.5087 0.224824 14.1198 0.674473C14.7309 1.12412 15.1701 1.70492 15.4375 2.41686H20.5365Z" fill="#808080"/>
</svg>
