<svg width="24" height="24" viewBox="0 0 24 24" fill="none" xmlns="http://www.w3.org/2000/svg">
<path d="M6.86148 23.8993L4.514 22.5827C4.1329 22.369 4.00002 21.8852 4.21851 21.5069L8.96862 13.2822L12.6842 15.3661L7.92446 23.6075C7.70979 23.9792 7.23595 24.1093 6.86148 23.8993V23.8993Z" fill="#4D5788"/>
<path d="M12.3144 16.0114L20.9761 21.1572C21.4989 21.4678 22.1611 21.0911 22.1611 20.4831V0.7853C22.1611 0.172686 21.4898 -0.203298 20.9671 0.116652L12.3144 5.41409L11.7529 10.6234L12.3144 16.0114Z" fill="#F1F1FA"/>
<path d="M11.7671 10.755L12.3149 16.0123L20.9766 21.1581C21.4994 21.4687 22.1616 21.092 22.1616 20.4841V10.755H11.7671Z" fill="#DED7F9"/>
<path d="M5.68059 14.1373H2.48904C1.66666 14.1373 1 13.4706 1 12.6483V8.60048C1 7.77811 1.66666 7.11145 2.48904 7.11145H5.68059V14.1373Z" fill="#667197"/>
<path d="M1 10.7552V12.6485C1 13.4709 1.66687 14.1375 2.48951 14.1375H5.68054V10.7552H1Z" fill="#4D5788"/>
<path d="M12.3146 16.0121H7.77184C6.29937 15.9229 5.10571 14.7296 5.10571 13.2576V7.99077C5.10571 6.51877 6.29937 5.32554 7.77184 5.41487H12.3146V16.0121Z" fill="#E06C6C"/>
<path d="M5.10522 10.7554V13.2582C5.10522 14.7302 6.29888 15.9234 7.77135 16.0127H12.3141V10.7554H5.10522Z" fill="#C63C50"/>
</svg>
