<svg width="24" height="24" viewBox="0 0 24 24" fill="none" xmlns="http://www.w3.org/2000/svg">
<path d="M23.6875 19.5685C23.9256 19.7051 24.0276 19.9442 23.9936 20.2857C23.9936 20.5931 23.8576 20.8663 23.5855 21.1054L21.0855 23.6158C20.5753 24.1281 20.0651 24.1281 19.5549 23.6158L9.65721 13.6768C8.43275 14.1891 7.12326 14.3087 5.72873 14.0354C4.36822 13.728 3.17777 13.062 2.15739 12.0374C1.06897 10.9445 0.388718 9.64659 0.116615 8.14379C-0.155487 6.64099 0.0485898 5.24066 0.728846 3.94279L5.52466 8.65611L8.78989 5.37728L4.09612 0.663963C5.3886 0.0491824 6.78313 -0.138667 8.2797 0.100414C9.77626 0.339495 11.0687 1.00551 12.1572 2.09845C13.1775 3.12308 13.8238 4.33557 14.0959 5.7359C14.402 7.10208 14.3 8.39995 13.7898 9.62951L23.6875 19.5685Z" fill="#808080"/>
</svg>
