<svg width="24" height="24" viewBox="0 0 24 24" fill="none" xmlns="http://www.w3.org/2000/svg">
<path d="M8.4375 15.5625C9.4375 16.5312 10.625 17.0156 12 17.0156C13.375 17.0156 14.5469 16.5312 15.5156 15.5625C16.5156 14.5625 17.0156 13.375 17.0156 12C17.0156 10.625 16.5156 9.45312 15.5156 8.48438C14.5469 7.48438 13.375 6.98438 12 6.98438C10.625 6.98438 9.4375 7.48438 8.4375 8.48438C7.46875 9.45312 6.98438 10.625 6.98438 12C6.98438 13.375 7.46875 14.5625 8.4375 15.5625ZM9 2.01562H15L16.8281 3.98438H20.0156C20.5469 3.98438 21 4.1875 21.375 4.59375C21.7812 5 21.9844 5.46875 21.9844 6V18C21.9844 18.5312 21.7812 19 21.375 19.4062C21 19.8125 20.5469 20.0156 20.0156 20.0156H3.98438C3.45312 20.0156 2.98438 19.8125 2.57812 19.4062C2.20312 19 2.01562 18.5312 2.01562 18V6C2.01562 5.46875 2.20312 5 2.57812 4.59375C2.98438 4.1875 3.45312 3.98438 3.98438 3.98438H7.17188L9 2.01562ZM9.75 14.25C9.125 13.625 8.8125 12.875 8.8125 12C8.8125 11.125 9.125 10.375 9.75 9.75C10.375 9.125 11.125 8.8125 12 8.8125C12.875 8.8125 13.625 9.125 14.25 9.75C14.875 10.375 15.1875 11.125 15.1875 12C15.1875 12.875 14.875 13.625 14.25 14.25C13.625 14.875 12.875 15.1875 12 15.1875C11.125 15.1875 10.375 14.875 9.75 14.25Z" fill="#666666"/>
</svg>
