<svg width="24" height="24" viewBox="0 0 24 24" fill="none" xmlns="http://www.w3.org/2000/svg">
<path d="M7.71831 17.5573C8.92019 18.7413 10.3474 19.3333 12 19.3333C13.6526 19.3333 15.061 18.7413 16.2254 17.5573C17.4272 16.3351 18.0282 14.8837 18.0282 13.2031C18.0282 11.5226 17.4272 10.0903 16.2254 8.90625C15.061 7.68403 13.6526 7.07292 12 7.07292C10.3474 7.07292 8.92019 7.68403 7.71831 8.90625C6.55399 10.0903 5.97183 11.5226 5.97183 13.2031C5.97183 14.8837 6.55399 16.3351 7.71831 17.5573ZM8.39437 1H15.6056L17.8028 3.40625H21.6338C22.2723 3.40625 22.8169 3.65451 23.2676 4.15104C23.7559 4.64757 24 5.22049 24 5.86979V20.5365C24 21.1858 23.7559 21.7587 23.2676 22.2552C22.8169 22.7517 22.2723 23 21.6338 23H2.3662C1.7277 23 1.16432 22.7517 0.676056 22.2552C0.225352 21.7587 0 21.1858 0 20.5365V5.86979C0 5.22049 0.225352 4.64757 0.676056 4.15104C1.16432 3.65451 1.7277 3.40625 2.3662 3.40625H6.19718L8.39437 1ZM9.29577 15.9531C8.5446 15.1892 8.16901 14.2726 8.16901 13.2031C8.16901 12.1337 8.5446 11.217 9.29577 10.4531C10.0469 9.68924 10.9484 9.30729 12 9.30729C13.0516 9.30729 13.9531 9.68924 14.7042 10.4531C15.4554 11.217 15.831 12.1337 15.831 13.2031C15.831 14.2726 15.4554 15.1892 14.7042 15.9531C13.9531 16.717 13.0516 17.099 12 17.099C10.9484 17.099 10.0469 16.717 9.29577 15.9531Z" fill="#808080"/>
</svg>
