<svg
    width="24"
    height="24"
    viewBox="0 0 24 24"
    fill="none"
    xmlns="http://www.w3.org/2000/svg"
  >
    <path
      fill-rule="evenodd"
      clip-rule="evenodd"
      d="M12.0001 4.6774e-10C9.62668 -2.09504e-05 7.30655 0.703778 5.33312 2.02239C3.35969 3.34101 1.82161 5.21521 0.913372 7.40799C0.00513796 9.60077 -0.232451 12.0136 0.230653 14.3414C0.693756 16.6692 1.83675 18.8074 3.51509 20.4856C5.19343 22.1638 7.33173 23.3067 9.65958 23.7696C11.9874 24.2325 14.4003 23.9947 16.593 23.0862C18.7857 22.1778 20.6597 20.6396 21.9782 18.666C23.2966 16.6925 24.0002 14.3723 24 11.9989C23.9964 8.81748 22.731 5.76745 20.4813 3.51798C18.2316 1.26851 15.1815 0.00331314 12.0001 4.6774e-10V4.6774e-10ZM12.0001 20.9996C10.2201 20.9996 8.48 20.4718 6.99994 19.4829C5.51988 18.4939 4.3663 17.0883 3.68508 15.4438C3.00386 13.7993 2.82559 11.9897 3.17282 10.2438C3.52005 8.49798 4.37717 6.8943 5.63581 5.63558C6.89445 4.37685 8.49808 3.51962 10.2439 3.17228C11.9897 2.82494 13.7993 3.00309 15.4439 3.6842C17.0885 4.36532 18.4942 5.5188 19.4832 6.9988C20.4722 8.47879 21.0002 10.2188 21.0003 11.9989C21.0004 13.1809 20.7677 14.3513 20.3155 15.4433C19.8632 16.5354 19.2003 17.5276 18.3645 18.3635C17.5288 19.1993 16.5365 19.8623 15.4445 20.3146C14.3525 20.7669 13.1821 20.9997 12.0001 20.9997V20.9996ZM15.4397 7.93948L10.4999 12.8787L8.56054 10.9386C8.42123 10.7994 8.25586 10.6889 8.07387 10.6136C7.89188 10.5383 7.69684 10.4995 7.49987 10.4996C7.30291 10.4996 7.10788 10.5384 6.92593 10.6139C6.74397 10.6893 6.57866 10.7998 6.43942 10.9391C6.30017 11.0784 6.18973 11.2438 6.1144 11.4258C6.03907 11.6078 6.00032 11.8028 6.00037 11.9998C6.00042 12.1967 6.03926 12.3918 6.11468 12.5737C6.19009 12.7557 6.30061 12.921 6.43992 13.0602L9.43955 16.0606C9.72087 16.3418 10.1024 16.4998 10.5001 16.4998C10.8979 16.4998 11.2794 16.3418 11.5607 16.0606L17.5607 10.06C17.7012 9.92103 17.8128 9.75565 17.8891 9.57337C17.9655 9.3911 18.005 9.19554 18.0056 8.99793C18.0061 8.80032 17.9675 8.60455 17.8921 8.42189C17.8167 8.23922 17.706 8.07326 17.5662 7.93354C17.4265 7.79383 17.2605 7.68311 17.0778 7.60775C16.8951 7.53239 16.6993 7.49388 16.5017 7.49443C16.3041 7.49498 16.1086 7.53459 15.9263 7.61096C15.7441 7.68734 15.5787 7.79899 15.4397 7.93948V7.93948Z"
      fill='#808080'
    />
  </svg>