<svg
    width="24"
    height="24"
    viewBox="0 0 24 24"
    fill="none"
    xmlns="http://www.w3.org/2000/svg"
  >
    <path
      fill-rule="evenodd"
      clip-rule="evenodd"
      d="M12.0001 5.77516e-10C9.62669 -2.32794e-05 7.30656 0.703773 5.33313 2.02239C3.3597 3.341 1.82161 5.2152 0.913375 7.40798C0.0051395 9.60076 -0.232451 12.0136 0.230651 14.3414C0.693753 16.6692 1.83675 18.8074 3.51509 20.4856C5.19342 22.1638 7.33173 23.3066 9.65958 23.7696C11.9874 24.2325 14.4003 23.9947 16.593 23.0862C18.7857 22.1778 20.6597 20.6396 21.9782 18.666C23.2966 16.6925 24.0002 14.3723 24 11.9989C23.9965 8.81746 22.731 5.7674 20.4814 3.51791C18.2317 1.26842 15.1815 0.00325093 12.0001 5.77516e-10V5.77516e-10ZM12.0001 20.9996C10.2201 20.9996 8.48002 20.4718 6.99997 19.4828C5.51992 18.4939 4.36635 17.0883 3.68514 15.4438C3.00394 13.7992 2.82568 11.9896 3.17291 10.2438C3.52015 8.49794 4.37728 6.89426 5.63592 5.63555C6.89456 4.37684 8.49818 3.51961 10.244 3.17228C11.9898 2.82494 13.7994 3.0031 15.444 3.68421C17.0886 4.36533 18.4943 5.51881 19.4833 6.9988C20.4723 8.4788 21.0003 10.2188 21.0004 11.9989C21.0005 13.1808 20.7677 14.3513 20.3155 15.4433C19.8632 16.5353 19.2003 17.5276 18.3645 18.3634C17.5287 19.1992 16.5365 19.8622 15.4445 20.3145C14.3525 20.7669 13.1821 20.9997 12.0001 20.9997V20.9996ZM16.2429 7.75655C15.9616 7.47548 15.5801 7.3176 15.1824 7.3176C14.7847 7.3176 14.4033 7.47548 14.1219 7.75655L12.0002 9.87832L9.87892 7.75656C9.59756 7.4753 9.21599 7.31733 8.81815 7.31741C8.42032 7.31748 8.03881 7.47559 7.75755 7.75695C7.47629 8.03832 7.31832 8.41989 7.31839 8.81772C7.31847 9.21556 7.47658 9.59707 7.75794 9.87833L9.87892 11.9989L7.75794 14.1205C7.47658 14.4017 7.31847 14.7833 7.31839 15.1811C7.31832 15.5789 7.47629 15.9605 7.75755 16.2419C8.03881 16.5232 8.42032 16.6813 8.81815 16.6814C9.21599 16.6815 9.59756 16.5235 9.87892 16.2423L12.0001 14.1205L14.1219 16.2423C14.4032 16.5235 14.7848 16.6815 15.1827 16.6814C15.5805 16.6813 15.962 16.5232 16.2433 16.2419C16.5245 15.9605 16.6825 15.5789 16.6824 15.1811C16.6823 14.7833 16.5242 14.4017 16.2429 14.1205L14.1219 11.9989L16.2429 9.87831C16.3822 9.739 16.4927 9.57361 16.5681 9.39158C16.6435 9.20955 16.6823 9.01446 16.6823 8.81743C16.6823 8.62041 16.6435 8.42531 16.5681 8.24329C16.4927 8.06126 16.3822 7.89587 16.2429 7.75656L16.2429 7.75655Z"
      fill='#808080'
    />
  </svg>