<svg width="120" height="91" viewBox="0 0 120 91" fill="none" xmlns="http://www.w3.org/2000/svg">
<g clip-path="url(#clip0)">
<path opacity="0.4" d="M54.2468 89.6326C65.9728 89.4619 77.7324 89.2889 89.3596 87.746C92.2613 87.3597 95.2596 86.8476 97.6695 85.1834C99.7312 83.7572 101.178 81.6056 102.337 79.3822C104.133 75.9234 105.384 72.0852 105.294 68.184C105.191 63.645 103.304 59.2362 103.581 54.7085C103.882 49.8303 106.622 45.5002 108.69 41.0779C110.849 36.4626 112.349 31.3643 111.731 26.3065C110.853 19.1195 105.717 12.9567 99.4954 9.23748C93.2742 5.51823 86.0423 3.88095 78.8935 2.67714C69.9492 1.15036 60.9074 0.262474 51.8369 0.0202077C47.4933 -0.074121 43.0014 0.0202077 38.9992 1.69567C35.28 3.26108 32.2502 6.0842 29.4608 9.0039C22.5346 16.2492 16.5671 24.3536 11.7045 33.1184C9.88306 36.4019 8.18289 39.9235 8.13348 43.6742C8.04814 50.1088 12.695 55.4945 15.2239 61.417C17.6225 67.0094 17.8763 72.9094 16.7241 78.8207C15.9358 82.8903 14.7028 87.2249 19.2665 89.3249C23.7292 91.3799 30.5815 89.9852 35.3204 89.9156L54.2468 89.6326Z" fill="#F2B557"/>
<path d="M64.529 87.9163C64.5463 87.9694 64.5503 88.0259 64.5408 88.0809C64.5313 88.1359 64.5085 88.1878 64.4745 88.232C64.4404 88.2762 64.3961 88.3115 64.3453 88.3348C64.2946 88.358 64.2389 88.3686 64.1832 88.3655C61.524 88.8147 58.8064 88.6574 56.1158 88.507C55.9092 87.3391 56.8413 86.2363 57.9126 85.731C58.9839 85.2257 60.2012 85.1358 61.3443 84.8326C61.8183 84.6734 62.3064 84.5598 62.8019 84.4935C64.8974 84.3273 64.4594 86.4699 64.529 87.9163Z" fill="#F2B557"/>
<path d="M64.529 87.9163C64.5463 87.9694 64.5503 88.0259 64.5408 88.0809C64.5313 88.1359 64.5085 88.1878 64.4745 88.232C64.4404 88.2762 64.3961 88.3115 64.3453 88.3348C64.2946 88.358 64.2389 88.3686 64.1832 88.3655C61.524 88.8147 58.8064 88.6574 56.1158 88.507C55.9092 87.3391 56.8413 86.2363 57.9126 85.731C58.9839 85.2257 60.2012 85.1358 61.3443 84.8326C61.8183 84.6734 62.3064 84.5598 62.8019 84.4935C64.8974 84.3273 64.4594 86.4699 64.529 87.9163Z" fill="url(#paint0_linear)"/>
<path d="M56.4775 24.8C56.199 22.8708 56.0889 20.7192 57.259 19.1605C58.2068 17.8983 59.8666 17.2919 61.4409 17.3818C63.0153 17.4716 64.5066 18.1813 65.7599 19.1381C66.4694 19.6506 67.0753 20.293 67.5454 21.0314C69.2141 23.8186 67.9384 27.8927 70.1619 30.2621C70.9457 31.0976 72.0597 31.567 72.857 32.3913C73.4056 32.957 73.7824 33.6668 73.9436 34.4382C74.1048 35.2096 74.0438 36.0109 73.7676 36.749C73.4915 37.4871 73.0116 38.1317 72.3836 38.6079C71.7557 39.0841 71.0055 39.3722 70.2203 39.439C69.0052 39.5423 67.8126 39.1111 66.6043 38.9494C64.6706 38.6888 62.6987 39.1133 60.7649 38.8955C58.8312 38.6776 56.7223 37.4895 56.4977 35.5535C56.2731 33.6175 57.9373 31.9174 57.7913 30.0038C57.688 28.6765 56.7425 27.5895 56.1383 26.4104C55.5342 25.2313 55.3972 23.5086 56.5246 22.7944" fill="#606161"/>
<path d="M56.4775 24.8C56.199 22.8708 56.0889 20.7192 57.259 19.1605C58.2068 17.8983 59.8666 17.2919 61.4409 17.3818C63.0153 17.4716 64.5066 18.1813 65.7599 19.1381C66.4694 19.6506 67.0753 20.293 67.5454 21.0314C69.2141 23.8186 67.9384 27.8927 70.1619 30.2621C70.9457 31.0976 72.0597 31.567 72.857 32.3913C73.4056 32.957 73.7824 33.6668 73.9436 34.4382C74.1048 35.2096 74.0438 36.0109 73.7676 36.749C73.4915 37.4871 73.0116 38.1317 72.3836 38.6079C71.7557 39.0841 71.0055 39.3722 70.2203 39.439C69.0052 39.5423 67.8126 39.1111 66.6043 38.9494C64.6706 38.6888 62.6987 39.1133 60.7649 38.8955C58.8312 38.6776 56.7223 37.4895 56.4977 35.5535C56.2731 33.6175 57.9373 31.9174 57.7913 30.0038C57.688 28.6765 56.7425 27.5895 56.1383 26.4104C55.5342 25.2313 55.3972 23.5086 56.5246 22.7944" fill="url(#paint1_linear)"/>
<path d="M74.7678 86.0371H75.3091V85.1679H74.7678V86.0371Z" fill="#CCE8EC"/>
<path d="M73.2341 78.8008H76.8433V69.3657H73.2341V78.8008Z" fill="#F2B557"/>
<path d="M73.2341 78.8008H76.8433V69.3657H73.2341V78.8008Z" fill="url(#paint2_linear)"/>
<path d="M73.2341 85.0488H76.8433V83.2858H73.2341V85.0488Z" fill="#F2B557"/>
<path d="M73.7761 83.3369H76.3027V78.7485H73.7761V83.3369Z" fill="#F2B557"/>
<path d="M73.7761 83.3369H76.3027V78.7485H73.7761V83.3369Z" fill="url(#paint3_linear)"/>
<path d="M66.8155 85.1943H83.2646V84.3184H66.8155V85.1943Z" fill="#F2B557"/>
<path d="M74.5677 87.9795H75.511C75.6859 87.9795 75.8276 87.8377 75.8276 87.6628V85.9492C75.8276 85.7743 75.6859 85.6325 75.511 85.6325H74.5677C74.3928 85.6325 74.251 85.7743 74.251 85.9492V87.6628C74.251 87.8377 74.3928 87.9795 74.5677 87.9795Z" fill="#2A2D6B"/>
<path d="M82.262 86.3291H82.8032V85.1432H82.262V86.3291Z" fill="#CCE8EC"/>
<path d="M67.844 85.1436H67.3027V86.3294H67.844V85.1436Z" fill="#CCE8EC"/>
<path d="M82.9548 88.1049C83.601 88.1049 84.1249 87.581 84.1249 86.9348C84.1249 86.2885 83.601 85.7646 82.9548 85.7646C82.3085 85.7646 81.7847 86.2885 81.7847 86.9348C81.7847 87.581 82.3085 88.1049 82.9548 88.1049Z" fill="#2A2D6B"/>
<path d="M67.1247 88.0287C67.771 88.0287 68.2948 87.5049 68.2948 86.8586C68.2948 86.2124 67.771 85.6885 67.1247 85.6885C66.4785 85.6885 65.9546 86.2124 65.9546 86.8586C65.9546 87.5049 66.4785 88.0287 67.1247 88.0287Z" fill="#2A2D6B"/>
<path d="M89.4336 38.625H76.7891C76.1288 38.6252 75.4894 38.856 74.9813 39.2775C74.4732 39.6991 74.1283 40.285 74.0064 40.9338L68.8901 68.2218L83.6099 66.9955L89.4336 38.625Z" fill="#F2B557"/>
<path d="M89.4336 38.625H76.7891C76.1288 38.6252 75.4894 38.856 74.9813 39.2775C74.4732 39.6991 74.1283 40.285 74.0064 40.9338L68.8901 68.2218L83.6099 66.9955L89.4336 38.625Z" fill="url(#paint4_linear)"/>
<path d="M71.5435 67.7618C71.5435 67.4931 71.5964 67.2271 71.6992 66.9788C71.802 66.7306 71.9527 66.505 72.1427 66.315C72.3327 66.125 72.5583 65.9743 72.8065 65.8715C73.0548 65.7687 73.3208 65.7158 73.5895 65.7158H83.4289C85.0527 55.535 87.2649 41.5856 87.3929 40.5143C87.4356 39.9886 87.6796 39.4997 88.074 39.1496C88.4685 38.7995 88.9828 38.6153 89.5098 38.6353C90.0368 38.6553 90.5358 38.878 90.9025 39.2569C91.2693 39.6359 91.4755 40.1419 91.4783 40.6692C91.4783 40.8758 91.4783 41.2577 87.1931 68.083C87.1161 68.5636 86.8703 69.0011 86.4999 69.3168C86.1294 69.6325 85.6585 69.8058 85.1717 69.8056H73.5895C73.0472 69.8056 72.5272 69.5903 72.1435 69.2071C71.7599 68.8239 71.5441 68.3041 71.5435 67.7618ZM87.3907 40.6715C87.3907 40.6266 87.3907 40.5794 87.3907 40.5345C87.3879 40.5801 87.3879 40.6258 87.3907 40.6715Z" fill="#F2B557"/>
<path d="M61.2364 69.8058H74.9522C75.4828 69.7882 75.9858 69.5651 76.355 69.1835C76.7241 68.8019 76.9305 68.2918 76.9305 67.7609C76.9305 67.23 76.7241 66.7199 76.355 66.3383C75.9858 65.9567 75.4828 65.7336 74.9522 65.716H61.2364C60.9621 65.7069 60.6889 65.753 60.4328 65.8517C60.1768 65.9504 59.9432 66.0996 59.746 66.2903C59.5488 66.4811 59.392 66.7096 59.2848 66.9623C59.1777 67.2149 59.1226 67.4865 59.1226 67.7609C59.1226 68.0353 59.1777 68.3069 59.2848 68.5595C59.392 68.8121 59.5488 69.0406 59.746 69.2314C59.9432 69.4222 60.1768 69.5714 60.4328 69.67C60.6889 69.7687 60.9621 69.8149 61.2364 69.8058Z" fill="#F2B557"/>
<path d="M74.3139 57.0537C74.3139 57.0537 55.6346 64.052 55.547 64.3709C54.9451 66.6168 60.7126 85.0334 60.7126 85.0334C60.7126 85.0334 62.6329 86.2619 64.8923 84.7886L63.1067 68.2429L72.2566 65.577C72.2566 65.577 76.4655 63.769 74.3139 57.0537Z" fill="#606161"/>
<path d="M62.0049 56.7096C62.0049 56.7096 48.9785 62.8544 49.093 63.1666C49.2076 63.4788 51.6175 83.2699 51.6175 83.2699C51.6175 83.2699 53.3468 84.4355 55.7792 83.2699L56.161 66.6343L71.9026 64.3727C71.9026 64.3727 73.4523 62.0481 74.3148 57.0555C72.6191 55.7034 62.463 56.5479 62.0049 56.7096Z" fill="#606161"/>
<path d="M47.4176 46.9605C47.4176 46.9605 44.7763 46.1901 43.7387 46.2867C42.7011 46.3833 40.4193 47.5152 40.2036 47.6073C39.988 47.6994 39.6983 48.2137 41.7758 48.0273C43.8533 47.8409 44.6596 49.4108 46.1958 49.0874C47.732 48.7639 48.0981 47.8364 48.0981 47.8364" fill="#F2DDCA"/>
<path d="M59.3719 31.3662L55.026 43.9434L47.008 46.5913C47.008 46.5913 46.2152 47.1595 47.2326 49.1562C47.2326 49.1562 55.282 49.0843 57.1484 48.2713C59.0147 47.4583 62.1703 35.602 62.1703 35.602" fill="#F2B557"/>
<path d="M59.3719 31.3662L55.026 43.9434L47.008 46.5913C47.008 46.5913 46.2152 47.1595 47.2326 49.1562C47.2326 49.1562 55.282 49.0843 57.1484 48.2713C59.0147 47.4583 62.1703 35.602 62.1703 35.602" fill="url(#paint5_linear)"/>
<path d="M67.5408 32.1971C68.6481 33.5896 69.4588 35.3302 70.1775 36.8282C71.6956 39.9734 72.6821 43.3483 73.0972 46.8158C73.3353 48.8776 73.3218 50.9865 73.5599 53.0865C73.5981 53.4121 74.2337 57.0909 73.9619 57.2077C73.9619 57.2077 69.6812 58.7417 63.1972 58.8293C62.5032 58.8293 60.1787 59.1931 59.7632 58.4385C59.5004 57.9624 59.9878 56.4441 60.0215 55.9186C60.2842 52.8619 60.2281 51.2942 60.3202 48.2285C60.3538 47.1056 58.5077 42.4745 57.9889 41.8883C57.3039 41.1157 57.0568 40.0219 57.1534 38.9933C57.2387 38.0635 57.7306 37.3133 57.9125 36.4307C58.081 35.6289 58.0001 34.8451 58.2651 34.032C59.1433 31.3661 61.5442 29.1382 64.5111 29.6525C66.0989 29.9287 66.5593 30.9641 67.5408 32.1971Z" fill="#F2B557"/>
<path d="M67.5408 32.1971C68.6481 33.5896 69.4588 35.3302 70.1775 36.8282C71.6956 39.9734 72.6821 43.3483 73.0972 46.8158C73.3353 48.8776 73.3218 50.9865 73.5599 53.0865C73.5981 53.4121 74.2337 57.0909 73.9619 57.2077C73.9619 57.2077 69.6812 58.7417 63.1972 58.8293C62.5032 58.8293 60.1787 59.1931 59.7632 58.4385C59.5004 57.9624 59.9878 56.4441 60.0215 55.9186C60.2842 52.8619 60.2281 51.2942 60.3202 48.2285C60.3538 47.1056 58.5077 42.4745 57.9889 41.8883C57.3039 41.1157 57.0568 40.0219 57.1534 38.9933C57.2387 38.0635 57.7306 37.3133 57.9125 36.4307C58.081 35.6289 58.0001 34.8451 58.2651 34.032C59.1433 31.3661 61.5442 29.1382 64.5111 29.6525C66.0989 29.9287 66.5593 30.9641 67.5408 32.1971Z" fill="url(#paint6_linear)"/>
<path d="M60.0118 55.9189C60.0118 55.9189 56.973 58.0795 57.8512 58.6028C58.6552 59.0834 64.3284 59.1621 65.0898 59.6674C65.8512 60.1727 67.1359 61.9605 70.1903 62.7533C73.2448 63.5461 74.3161 61.4417 74.5384 59.6674C74.6819 58.6443 74.4753 57.6027 73.9522 56.7118C73.9522 56.7118 62.7653 57.965 60.0118 55.9189Z" fill="#EFFAFF"/>
<path d="M47.2381 47.9365H28.8687V49.1448H47.2381V47.9365Z" fill="#F2B557"/>
<path d="M47.2381 47.9365H28.8687V49.1448H47.2381V47.9365Z" fill="url(#paint7_linear)"/>
<path d="M68.0319 49.0713H26.9517V50.2976H68.0319V49.0713Z" fill="#F2B557"/>
<path d="M59.8566 50.2168H27.1807V89.3093H59.8566V50.2168Z" fill="#F2B557"/>
<path d="M59.8566 50.2168H27.1807V89.3093H59.8566V50.2168Z" fill="url(#paint8_linear)"/>
<path d="M44.2185 27.0742H24.6295C23.3507 27.0742 22.314 28.1109 22.314 29.3898V42.5396C22.314 43.8185 23.3507 44.8552 24.6295 44.8552H44.2185C45.4973 44.8552 46.534 43.8185 46.534 42.5396V29.3898C46.534 28.1109 45.4973 27.0742 44.2185 27.0742Z" fill="#F2B557"/>
<path d="M44.2185 27.0742H24.6295C23.3507 27.0742 22.314 28.1109 22.314 29.3898V42.5396C22.314 43.8185 23.3507 44.8552 24.6295 44.8552H44.2185C45.4973 44.8552 46.534 43.8185 46.534 42.5396V29.3898C46.534 28.1109 45.4973 27.0742 44.2185 27.0742Z" fill="url(#paint9_linear)"/>
<path d="M31.565 37.6523H34.561C35.0936 37.6523 35.6043 37.8639 35.9808 38.2404C36.3574 38.617 36.5689 39.1277 36.5689 39.6602V49.147H29.5571V39.6602C29.5571 39.1277 29.7687 38.617 30.1452 38.2404C30.5218 37.8639 31.0325 37.6523 31.565 37.6523Z" fill="#F2B557"/>
<path d="M31.565 37.6523H34.561C35.0936 37.6523 35.6043 37.8639 35.9808 38.2404C36.3574 38.617 36.5689 39.1277 36.5689 39.6602V49.147H29.5571V39.6602C29.5571 39.1277 29.7687 38.617 30.1452 38.2404C30.5218 37.8639 31.0325 37.6523 31.565 37.6523Z" fill="url(#paint10_linear)"/>
<path d="M60.5944 32.0155C60.59 32.1684 60.6143 32.3208 60.6663 32.4647C60.7288 32.5899 60.8215 32.6975 60.936 32.7779C61.0505 32.8583 61.1832 32.9089 61.3221 32.9251C61.5999 32.9548 61.8808 32.9218 62.1441 32.8285C63.3457 32.4625 64.4574 31.4967 64.5922 30.248C64.621 29.8715 64.5922 29.4928 64.5068 29.125C64.3926 28.5495 64.2171 27.9878 63.9835 27.4496C63.759 26.9442 63.4266 26.4097 62.8853 26.3154C62.344 26.221 61.7893 26.6702 61.4614 27.1531C60.5203 28.5186 60.5563 30.4209 60.5944 32.0155Z" fill="#F2DDCA"/>
<path d="M63.8223 29.2626C63.5863 29.9824 63.1055 30.5967 62.4635 30.9987C62.2159 31.1535 61.9264 31.228 61.6348 31.212C61.1407 31.1626 60.7521 30.7471 60.5567 30.2912C60.3954 29.8819 60.3101 29.4465 60.3052 29.0065C60.2408 28.2186 60.4045 27.4288 60.7768 26.7314C61.1744 26.0576 61.8998 25.5411 62.6926 25.559C64.705 25.6062 64.2782 28.0183 63.8223 29.2626Z" fill="url(#paint11_linear)"/>
<path d="M57.1511 21.9803L57.6205 24.9494C57.7438 25.9605 57.9626 26.9577 58.2741 27.9275C58.5526 28.6978 58.9816 29.4614 59.6935 29.8657C60.0508 30.0514 60.4454 30.1541 60.8478 30.1661C61.2503 30.1782 61.6503 30.0993 62.0181 29.9353C62.7526 29.5983 63.3787 29.0632 63.826 28.3901C64.9647 26.7708 65.2792 24.6911 65.113 22.7192C65.0164 21.558 64.7424 20.3677 64.0237 19.4514C63.5985 18.923 63.0448 18.5126 62.4156 18.2594C61.7865 18.0061 61.1029 17.9185 60.4302 18.005C58.5189 18.2745 56.8569 20.0488 57.1511 21.9803Z" fill="#F2DDCA"/>
<path d="M66.8404 23.1011C66.7717 22.8863 66.6806 22.6793 66.5686 22.4835C66.6151 22.1863 66.6384 21.8859 66.6382 21.5851C66.6382 20.1007 66.0485 18.6772 64.9989 17.6276C63.9493 16.5779 62.5257 15.9883 61.0414 15.9883C59.557 15.9883 58.1334 16.5779 57.0838 17.6276C56.0342 18.6772 55.4445 20.1007 55.4445 21.5851C55.4452 21.8905 55.47 22.1954 55.5186 22.497C55.4108 22.6908 55.322 22.8946 55.2536 23.1056C55.1234 23.4605 55.2065 25.1764 55.3682 25.4099C55.6646 25.8389 56.4687 26.1735 56.9807 26.2387C57.0133 26.2746 57.0538 26.3024 57.0991 26.32C57.1443 26.3375 57.193 26.3443 57.2413 26.3397C57.281 26.3369 57.3198 26.3262 57.3554 26.3083C57.391 26.2903 57.4227 26.2655 57.4486 26.2352C57.4745 26.2049 57.4942 26.1697 57.5064 26.1318C57.5186 26.0938 57.5231 26.0538 57.5198 26.0141L57.239 22.9282C57.23 22.8482 57.1898 22.7751 57.1271 22.7246C57.0644 22.6742 56.9844 22.6505 56.9044 22.6587C56.831 22.6666 56.7626 22.7 56.7112 22.753H56.6281C56.518 22.7283 56.4146 22.6799 56.325 22.6113C56.2355 22.5426 56.1619 22.4553 56.1093 22.3555C56.0697 22.1036 56.0495 21.8491 56.0487 21.5941C56.0487 18.7957 58.2834 16.8777 61.0414 16.8777C63.7994 16.8777 66.0341 18.8002 66.0341 21.5941C66.0344 21.8514 66.0141 22.1082 65.9734 22.3622C65.9198 22.4568 65.8469 22.539 65.7594 22.6036C65.672 22.6682 65.572 22.7137 65.4658 22.7373H65.3827C65.3425 22.6952 65.2911 22.6654 65.2346 22.6513C65.1781 22.6373 65.1187 22.6396 65.0634 22.6579C65.0081 22.6763 64.9592 22.7099 64.9223 22.755C64.8854 22.8 64.862 22.8547 64.8549 22.9125L64.5742 25.9984C64.568 26.0785 64.5939 26.1578 64.6461 26.2188C64.6983 26.2799 64.7726 26.3177 64.8527 26.324C64.901 26.3286 64.9497 26.3218 64.9949 26.3043C65.0401 26.2867 65.0806 26.2589 65.1132 26.223C65.6253 26.1578 66.4293 25.8232 66.7258 25.3942C66.8875 25.1741 66.9729 23.456 66.8404 23.1011Z" fill="#F2B557"/>
<path d="M66.8404 23.1011C66.7717 22.8863 66.6806 22.6793 66.5686 22.4835C66.6151 22.1863 66.6384 21.8859 66.6382 21.5851C66.6382 20.1007 66.0485 18.6772 64.9989 17.6276C63.9493 16.5779 62.5257 15.9883 61.0414 15.9883C59.557 15.9883 58.1334 16.5779 57.0838 17.6276C56.0342 18.6772 55.4445 20.1007 55.4445 21.5851C55.4452 21.8905 55.47 22.1954 55.5186 22.497C55.4108 22.6908 55.322 22.8946 55.2536 23.1056C55.1234 23.4605 55.2065 25.1764 55.3682 25.4099C55.6646 25.8389 56.4687 26.1735 56.9807 26.2387C57.0133 26.2746 57.0538 26.3024 57.0991 26.32C57.1443 26.3375 57.193 26.3443 57.2413 26.3397C57.281 26.3369 57.3198 26.3262 57.3554 26.3083C57.391 26.2903 57.4227 26.2655 57.4486 26.2352C57.4745 26.2049 57.4942 26.1697 57.5064 26.1318C57.5186 26.0938 57.5231 26.0538 57.5198 26.0141L57.239 22.9282C57.23 22.8482 57.1898 22.7751 57.1271 22.7246C57.0644 22.6742 56.9844 22.6505 56.9044 22.6587C56.831 22.6666 56.7626 22.7 56.7112 22.753H56.6281C56.518 22.7283 56.4146 22.6799 56.325 22.6113C56.2355 22.5426 56.1619 22.4553 56.1093 22.3555C56.0697 22.1036 56.0495 21.8491 56.0487 21.5941C56.0487 18.7957 58.2834 16.8777 61.0414 16.8777C63.7994 16.8777 66.0341 18.8002 66.0341 21.5941C66.0344 21.8514 66.0141 22.1082 65.9734 22.3622C65.9198 22.4568 65.8469 22.539 65.7594 22.6036C65.672 22.6682 65.572 22.7137 65.4658 22.7373H65.3827C65.3425 22.6952 65.2911 22.6654 65.2346 22.6513C65.1781 22.6373 65.1187 22.6396 65.0634 22.6579C65.0081 22.6763 64.9592 22.7099 64.9223 22.755C64.8854 22.8 64.862 22.8547 64.8549 22.9125L64.5742 25.9984C64.568 26.0785 64.5939 26.1578 64.6461 26.2188C64.6983 26.2799 64.7726 26.3177 64.8527 26.324C64.901 26.3286 64.9497 26.3218 64.9949 26.3043C65.0401 26.2867 65.0806 26.2589 65.1132 26.223C65.6253 26.1578 66.4293 25.8232 66.7258 25.3942C66.8875 25.1741 66.9729 23.456 66.8404 23.1011Z" fill="url(#paint12_linear)"/>
<path d="M65.5286 26.0728C65.1939 25.8123 65.0794 26.0728 65.0794 26.0728C64.8997 26.394 63.8666 27.8359 61.6274 28.4782C61.5196 28.3793 61.3932 28.3029 61.2555 28.2536C61.1178 28.2042 60.9717 28.1828 60.8256 28.1907C60.3225 28.1907 59.916 28.431 59.916 28.7275C59.916 29.024 60.3225 29.2665 60.8256 29.2665C61.3287 29.2665 61.724 29.0285 61.7352 28.732C62.519 28.4917 64.473 27.764 65.5286 26.0728Z" fill="#F2B557"/>
<path d="M65.5286 26.0728C65.1939 25.8123 65.0794 26.0728 65.0794 26.0728C64.8997 26.394 63.8666 27.8359 61.6274 28.4782C61.5196 28.3793 61.3932 28.3029 61.2555 28.2536C61.1178 28.2042 60.9717 28.1828 60.8256 28.1907C60.3225 28.1907 59.916 28.431 59.916 28.7275C59.916 29.024 60.3225 29.2665 60.8256 29.2665C61.3287 29.2665 61.724 29.0285 61.7352 28.732C62.519 28.4917 64.473 27.764 65.5286 26.0728Z" fill="url(#paint13_linear)"/>
<path d="M58.0001 20.6265C58.2066 20.8269 58.3945 21.0457 58.5615 21.28C59.0355 21.8261 59.668 22.2107 60.371 22.3802C61.0739 22.5496 61.8122 22.4956 62.4829 22.2256C62.9321 22.0324 63.4038 21.7337 63.8731 21.8685C64.1176 21.9693 64.349 22.099 64.5626 22.2548C64.7872 22.3873 65.1039 22.4547 65.3083 22.2862C65.3737 22.2213 65.4247 22.1434 65.458 22.0575C65.4913 21.9716 65.5061 21.8796 65.5014 21.7876C65.5239 21.0914 65.0972 20.4715 64.6907 19.9078C64.3737 19.4177 63.9793 18.9823 63.5228 18.6186C63.1392 18.3615 62.71 18.1801 62.2583 18.0841C61.0827 17.8095 59.8496 17.9254 58.7457 18.4142C58.3392 18.5807 57.9742 18.8345 57.6766 19.1576C57.497 19.3688 57.1668 19.8719 57.2656 20.1728C57.3645 20.4738 57.753 20.4176 58.0001 20.6265Z" fill="#606161"/>
<path d="M67.0332 22.4215C66.9187 22.3359 66.7808 22.2874 66.6379 22.2822C66.5435 22.2967 66.4551 22.3377 66.3831 22.4005C66.3111 22.4634 66.2585 22.5454 66.2314 22.6371C66.1811 22.8205 66.1666 23.0119 66.1888 23.2008L66.3303 25.7791C66.3357 26.0629 66.3718 26.3453 66.4381 26.6214C66.6402 27.349 67.2286 27.8925 67.7856 28.3934C68.0133 28.6357 68.3018 28.8125 68.6211 28.9055C68.8478 28.932 69.0774 28.8966 69.2855 28.8028C69.4935 28.7091 69.6722 28.5606 69.8025 28.3732C71.3207 26.4215 68.6503 23.4119 67.0332 22.4215Z" fill="#F2DDCA"/>
<path d="M69.7589 42.1426C71.1895 43.7327 73.0492 45.0039 75.1491 45.4126C75.2214 45.4447 75.3001 45.4595 75.3791 45.456C75.4581 45.4525 75.5352 45.4308 75.6044 45.3925C75.6736 45.3542 75.733 45.3004 75.7779 45.2353C75.8228 45.1702 75.852 45.0956 75.8633 45.0174C76.4966 43.3352 76.3686 41.4508 75.9329 39.7058C75.4972 37.9607 74.774 36.3032 74.2148 34.594C73.541 32.5076 70.4506 26.8838 70.217 26.8838C69.3816 26.8838 68.5685 27.8024 68.0722 28.3773C68.153 30.2909 69.6623 31.6946 69.9498 33.5901C69.7252 32.539 68.1867 31.3442 67.2277 30.8658C66.828 30.6637 65.1031 29.5767 64.737 29.8349C64.4518 30.0348 65.559 31.3756 65.4939 31.7193C64.8044 35.3442 67.4254 39.5485 69.7589 42.1426Z" fill="#F2B557"/>
<path d="M69.7589 42.1426C71.1895 43.7327 73.0492 45.0039 75.1491 45.4126C75.2214 45.4447 75.3001 45.4595 75.3791 45.456C75.4581 45.4525 75.5352 45.4308 75.6044 45.3925C75.6736 45.3542 75.733 45.3004 75.7779 45.2353C75.8228 45.1702 75.852 45.0956 75.8633 45.0174C76.4966 43.3352 76.3686 41.4508 75.9329 39.7058C75.4972 37.9607 74.774 36.3032 74.2148 34.594C73.541 32.5076 70.4506 26.8838 70.217 26.8838C69.3816 26.8838 68.5685 27.8024 68.0722 28.3773C68.153 30.2909 69.6623 31.6946 69.9498 33.5901C69.7252 32.539 68.1867 31.3442 67.2277 30.8658C66.828 30.6637 65.1031 29.5767 64.737 29.8349C64.4518 30.0348 65.559 31.3756 65.4939 31.7193C64.8044 35.3442 67.4254 39.5485 69.7589 42.1426Z" fill="url(#paint14_linear)"/>
</g>
<defs>
<linearGradient id="paint0_linear" x1="66.9097" y1="78.6631" x2="57.4072" y2="91.8444" gradientUnits="userSpaceOnUse">
<stop stop-color="#010101" stop-opacity="0"/>
<stop offset="0.95" stop-color="#010101"/>
</linearGradient>
<linearGradient id="paint1_linear" x1="5301.5" y1="2393.15" x2="5121.62" y2="3552.78" gradientUnits="userSpaceOnUse">
<stop stop-color="#010101" stop-opacity="0"/>
<stop offset="0.95" stop-color="#010101"/>
</linearGradient>
<linearGradient id="paint2_linear" x1="1260.08" y1="3481.48" x2="1193.35" y2="2836.91" gradientUnits="userSpaceOnUse">
<stop stop-color="#010101" stop-opacity="0"/>
<stop offset="0.95" stop-color="#010101"/>
</linearGradient>
<linearGradient id="paint3_linear" x1="73.7761" y1="81.0416" x2="76.3027" y2="81.0416" gradientUnits="userSpaceOnUse">
<stop stop-color="white" stop-opacity="0"/>
<stop offset="0.95" stop-color="white"/>
</linearGradient>
<linearGradient id="paint4_linear" x1="8524.58" y1="6903.01" x2="4823.71" y2="7117.82" gradientUnits="userSpaceOnUse">
<stop stop-color="#010101" stop-opacity="0"/>
<stop offset="0.95" stop-color="#010101"/>
</linearGradient>
<linearGradient id="paint5_linear" x1="3495.35" y1="3514.46" x2="4632.07" y2="2964.77" gradientUnits="userSpaceOnUse">
<stop stop-color="#010101" stop-opacity="0"/>
<stop offset="0.95" stop-color="#010101"/>
</linearGradient>
<linearGradient id="paint6_linear" x1="4442.49" y1="5991.53" x2="6451.51" y2="5766.95" gradientUnits="userSpaceOnUse">
<stop stop-color="#010101" stop-opacity="0"/>
<stop offset="0.95" stop-color="#010101"/>
</linearGradient>
<linearGradient id="paint7_linear" x1="2472" y1="299.19" x2="2472.06" y2="332.612" gradientUnits="userSpaceOnUse">
<stop stop-color="#010101" stop-opacity="0"/>
<stop offset="0.95" stop-color="#010101"/>
</linearGradient>
<linearGradient id="paint8_linear" x1="5091.62" y1="14028.5" x2="5697.44" y2="4782.18" gradientUnits="userSpaceOnUse">
<stop stop-color="#010101" stop-opacity="0"/>
<stop offset="0.95" stop-color="#010101"/>
</linearGradient>
<linearGradient id="paint9_linear" x1="2823.36" y1="3691.73" x2="2867.89" y2="1725.01" gradientUnits="userSpaceOnUse">
<stop stop-color="white" stop-opacity="0"/>
<stop offset="0.95" stop-color="white"/>
</linearGradient>
<linearGradient id="paint10_linear" x1="1023.69" y1="2195.66" x2="557.815" y2="2254.07" gradientUnits="userSpaceOnUse">
<stop stop-color="white" stop-opacity="0"/>
<stop offset="0.95" stop-color="white"/>
</linearGradient>
<linearGradient id="paint11_linear" x1="1117.87" y1="600.39" x2="1128.99" y2="1214.03" gradientUnits="userSpaceOnUse">
<stop stop-color="#010101" stop-opacity="0"/>
<stop offset="0.95" stop-color="#010101"/>
</linearGradient>
<linearGradient id="paint12_linear" x1="3181.97" y1="848.771" x2="3150.76" y2="1488.69" gradientUnits="userSpaceOnUse">
<stop stop-color="#010101" stop-opacity="0"/>
<stop offset="0.95" stop-color="#010101"/>
</linearGradient>
<linearGradient id="paint13_linear" x1="1607.81" y1="385.468" x2="1596.55" y2="482.674" gradientUnits="userSpaceOnUse">
<stop stop-color="#010101" stop-opacity="0"/>
<stop offset="0.95" stop-color="#010101"/>
</linearGradient>
<linearGradient id="paint14_linear" x1="4029.05" y1="2859.6" x2="1894.14" y2="3434.43" gradientUnits="userSpaceOnUse">
<stop stop-color="#010101" stop-opacity="0"/>
<stop offset="0.95" stop-color="#010101"/>
</linearGradient>
<clipPath id="clip0">
<rect width="120" height="90.4434" fill="white"/>
</clipPath>
</defs>
</svg>
