<svg width="24" height="24" viewBox="0 0 24 24" fill="none" xmlns="http://www.w3.org/2000/svg">
<path d="M2 10.6875C0.895431 10.6875 0 9.79207 0 8.6875L0 2C0 0.89543 0.895431 -7.15256e-07 2 -7.15256e-07H6C7.10457 -7.15256e-07 8 0.89543 8 2V8.6875C8 9.79207 7.10457 10.6875 6 10.6875H2ZM24 8.6875C24 9.79207 23.1046 10.6875 22 10.6875L12.6875 10.6875C11.5829 10.6875 10.6875 9.79207 10.6875 8.6875V2C10.6875 0.89543 11.5829 -7.15256e-07 12.6875 -7.15256e-07H22C23.1046 -7.15256e-07 24 0.89543 24 2V8.6875ZM24 22C24 23.1046 23.1046 24 22 24H18C16.8954 24 16 23.1046 16 22V15.3125C16 14.2079 16.8954 13.3125 18 13.3125H22C23.1046 13.3125 24 14.2079 24 15.3125V22ZM13.3125 22C13.3125 23.1046 12.4171 24 11.3125 24H2C0.895431 24 0 23.1046 0 22L0 15.3125C0 14.2079 0.895431 13.3125 2 13.3125H11.3125C12.4171 13.3125 13.3125 14.2079 13.3125 15.3125V22Z" fill="#808080"/>
</svg>
