<svg width="24" height="24" viewBox="0 0 24 24" fill="none" xmlns="http://www.w3.org/2000/svg">
<path d="M18.2857 0C18.7025 0 19.1022 0.168571 19.3969 0.468629C19.6916 0.768687 19.8571 1.17565 19.8571 1.6V22.4H22.2143C22.4227 22.4 22.6225 22.4843 22.7699 22.6343C22.9172 22.7843 23 22.9878 23 23.2C23 23.4122 22.9172 23.6157 22.7699 23.7657C22.6225 23.9157 22.4227 24 22.2143 24H1.78571C1.57733 24 1.37748 23.9157 1.23013 23.7657C1.08278 23.6157 1 23.4122 1 23.2C1 22.9878 1.08278 22.7843 1.23013 22.6343C1.37748 22.4843 1.57733 22.4 1.78571 22.4H4.14286V1.6C4.14286 1.17565 4.30842 0.768687 4.60312 0.468629C4.89782 0.168571 5.29752 0 5.71429 0H18.2857ZM15.1429 14.4C15.5596 14.4 15.9593 14.2314 16.254 13.9314C16.5487 13.6313 16.7143 13.2243 16.7143 12.8C16.7143 12.3757 16.5487 11.9687 16.254 11.6686C15.9593 11.3686 15.5596 11.2 15.1429 11.2C14.7261 11.2 14.3264 11.3686 14.0317 11.6686C13.737 11.9687 13.5714 12.3757 13.5714 12.8C13.5714 13.2243 13.737 13.6313 14.0317 13.9314C14.3264 14.2314 14.7261 14.4 15.1429 14.4V14.4Z" fill="#808080"/>
</svg>
