<svg width="24" height="24" viewBox="0 0 24 24" fill="none" xmlns="http://www.w3.org/2000/svg">
<path d="M21.3125 0C22.0208 0 22.6458 0.270833 23.1875 0.8125C23.7292 1.35417 24 1.97917 24 2.6875V21.3125C24 22.0208 23.7292 22.6458 23.1875 23.1875C22.6458 23.7292 22.0208 24 21.3125 24H2.6875C1.9375 24 1.29167 23.7292 0.75 23.1875C0.25 22.6458 0 22.0208 0 21.3125V16H2.6875V21.3125H21.3125V2.6875H2.6875V8H0V2.6875C0 1.97917 0.25 1.35417 0.75 0.8125C1.29167 0.270833 1.9375 0 2.6875 0H21.3125ZM9.4375 16.8125L12.875 13.3125H0V10.6875H12.875L9.4375 7.1875L11.3125 5.3125L18 12L11.3125 18.6875L9.4375 16.8125Z" fill="#808080"/>
</svg>
