<svg width="24" height="24" viewBox="0 0 24 24" fill="none" xmlns="http://www.w3.org/2000/svg">
<path d="M8.48438 13.5L5.01562 18H18.9844L14.4844 12L11.0156 16.5L8.48438 13.5ZM21 18.9844C21 19.5156 20.7969 19.9844 20.3906 20.3906C19.9844 20.7969 19.5156 21 18.9844 21H5.01562C4.48438 21 4.01562 20.7969 3.60938 20.3906C3.20312 19.9844 3 19.5156 3 18.9844V5.01562C3 4.48438 3.20312 4.01562 3.60938 3.60938C4.01562 3.20312 4.48438 3 5.01562 3H18.9844C19.5156 3 19.9844 3.20312 20.3906 3.60938C20.7969 4.01562 21 4.48438 21 5.01562V18.9844Z" fill="#666666"/>
</svg>
