<svg width="186" height="150" viewBox="0 0 186 150" fill="none" xmlns="http://www.w3.org/2000/svg">
<path d="M95.7465 148.526L182.211 97.4102C184.965 95.8454 187.323 93.3261 184.642 91.6727L97.8641 41.6674C96.5601 40.8589 94.5833 40.3321 93.2637 41.0988L2.50621 93.7799C-0.247818 95.376 -0.738113 99.846 2.01591 101.442L84.3496 148.443C86.0774 149.448 88.0379 149.985 90.0369 150C92.0359 150.014 94.0041 149.506 95.7465 148.526Z" fill="#FBE9C9"/>
<path opacity="0.2" d="M74.4968 84.391C68.6261 88.165 102.802 107.978 106.471 107.978C110.14 107.978 155.218 78.6252 155.218 78.6252L115.906 56.6104C108.043 61.5025 80.3674 80.6171 74.4968 84.391Z" fill="url(#paint0_linear)"/>
<path d="M113.007 15.5384C113.007 15.5384 112.411 13.6754 112.577 12.9801C112.743 12.2847 113.241 11.0704 113.34 10.593C113.438 10.1156 112.706 10.3388 112.374 11.0082C112.042 11.6776 112.177 12.1446 111.575 11.9319C110.973 11.7191 108.913 10.7695 107.683 10.8265C106.453 10.8836 106.92 11.4493 107.118 11.9319C107.315 12.4145 108.55 13.0475 109.193 13.4108C109.837 13.774 111.02 16.7008 111.02 16.7008" fill="#FFAC99"/>
<path d="M120.116 71.1564C120.171 71.4281 120.165 71.7087 120.098 71.9778C120.032 72.247 119.907 72.4981 119.732 72.7132C119.151 73.3411 116.924 75.3078 116.712 75.7385C116.499 76.1692 116.193 77.3316 116.712 77.7364C117.231 78.1411 118.206 78.1827 119.415 77.7364C121.091 76.9693 122.661 75.989 124.086 74.82C124.604 74.2388 124.086 68.2297 124.086 68.2297C124.086 68.2297 120.972 67.4668 119.934 68.2297L120.116 71.1564Z" fill="#212121"/>
<path d="M128.335 75.1691C128.39 75.4408 128.384 75.7214 128.318 75.9905C128.252 76.2597 128.126 76.5108 127.951 76.7259C127.37 77.3538 125.144 79.3205 124.931 79.7512C124.719 80.1819 124.412 81.3443 124.931 81.7491C125.45 82.1538 126.426 82.1953 127.635 81.7491C129.311 80.982 130.88 80.0017 132.305 78.8327C132.824 78.2515 132.305 72.2424 132.305 72.2424C132.305 72.2424 129.192 71.4795 128.154 72.2424L128.335 75.1691Z" fill="#212121"/>
<path d="M119.737 32.3262C118.768 36.8267 118.201 41.4042 118.04 46.0051C117.937 52.611 118.715 70.3634 118.715 70.3634C118.715 70.3634 120.542 72.1226 124.568 71.5051V46.8717C124.568 46.8717 125.97 47.3906 125.97 48.4284C125.97 49.4663 127.256 74.6965 127.256 74.6965C127.256 74.6965 127.973 76.0301 133.24 73.9907C133.24 73.9907 134.089 40.2455 130.218 33.7693" fill="#424242"/>
<path d="M129.898 34.0491C128.974 34.0128 126.39 34.6614 124.631 34.5317C122.932 34.4585 121.25 34.1619 119.628 33.6495C119.561 33.3382 119.504 33.0113 119.457 32.6532C118.289 23.6291 118.601 17.2982 119.457 15.866C120.313 14.4337 125.445 13.3025 127.76 13.9511C130.074 14.5998 133.608 17.3189 133.608 17.3189C133.608 17.3189 132.648 24.9783 130.93 30.4218C130.453 31.9527 130.453 31.9527 129.898 34.0491Z" fill="#F2B557"/>
<path d="M126.639 15.0188C125.368 15.2471 123.847 15.107 123.339 14.1366C123.095 13.6696 122.82 12.8341 123.417 12.4916C123.769 12.2788 127.625 12.2581 128.222 12.5227C129.166 12.9431 128.87 14.0536 128.118 14.5102C127.659 14.7649 127.158 14.937 126.639 15.0188Z" fill="#F2B557"/>
<path d="M128.969 5.27416C128.227 5.14443 128.248 3.9042 126.893 3.33857C125.539 2.77294 123.889 3.58766 123.261 4.02355C122.633 4.45945 122.223 3.57209 121.554 4.25188C120.884 4.93167 121.31 5.9799 120.926 6.35353L120.874 6.39504C120.706 6.67595 120.613 6.99487 120.603 7.32172C120.593 7.64856 120.667 7.97257 120.817 8.26318C121.113 8.66749 121.462 9.03047 121.855 9.34254L128.051 12.5703C128.798 12.0513 130.235 7.06965 130.126 6.44694C130.097 6.14838 129.966 5.86891 129.756 5.65539C129.545 5.44187 129.267 5.30727 128.969 5.27416Z" fill="#200904"/>
<path d="M122.192 7.16732C121.912 7.4683 122.835 13.4411 124.657 13.6591C126.478 13.877 128.616 11.4692 128.808 10.7531C129 10.037 128.886 6.2125 128.149 5.85444C127.412 5.49638 123.894 5.33552 122.192 7.16732Z" fill="#FFAC99"/>
<path d="M123.042 5.44549C123.042 5.44549 122.684 6.83621 124.858 7.09568C127.033 7.35514 127.178 7.84293 127.453 8.60575C127.936 10.0328 129.461 11.7193 129.985 7.40184C129.985 7.19427 128.429 4.25196 126.763 4.02364C125.097 3.79531 123.042 5.44549 123.042 5.44549Z" fill="#200904"/>
<path d="M127.626 9.36248C127.626 9.36248 128.306 8.1897 128.835 8.74495C129.364 9.30021 128.98 10.6131 128.264 11.023" fill="#EB9885"/>
<path d="M119.442 15.8718C118.364 17.7327 117.494 19.706 116.847 21.7564C116.847 21.7564 114.003 14.9377 113.453 15.0103C112.903 15.083 111.004 16.2869 110.859 17.086C110.713 17.8852 113.671 28.3727 117.319 29.3223C120.967 30.272 123.027 22.1715 123.027 22.1715" fill="#F2B557"/>
<path d="M59.9522 59.0098L59.5578 59.2485L60.3414 59.757L58.8158 59.6896L58.3332 59.975L60.0352 60.0269L60.082 61.1062L60.5594 60.8208L60.5023 59.8608L61.2962 60.3797L61.6958 60.141L59.9522 59.0098Z" fill="white"/>
<path d="M62.0018 57.7891L61.6074 58.0226L61.9084 59.3303L60.7148 58.5571L60.3153 58.7958L62.0589 59.927L62.4532 59.6883L62.1626 58.3858L63.351 59.159L63.7454 58.9203L62.0018 57.7891Z" fill="white"/>
<path d="M68.4671 58.6937C68.4671 58.6937 70.5428 56.5142 70.9268 55.4245C71.3108 54.3347 70.6933 50.7126 71.1759 50.4168C71.6585 50.121 72.3175 51.5429 72.2137 51.9736C72.2137 52.0203 72.2137 52.0047 72.2397 51.9736C72.2922 51.9144 72.3358 51.848 72.3694 51.7764C72.5355 51.5066 72.6912 51.2575 72.852 50.9669C73.0596 50.614 73.2723 50.2612 73.4903 49.929C73.6824 49.6164 73.892 49.315 74.1182 49.0261C74.2064 48.9171 74.4036 48.6058 74.5697 48.6525C74.5915 48.6593 74.6105 48.6732 74.6237 48.692C74.6368 48.7108 74.6434 48.7334 74.6423 48.7563C74.6383 49.0041 74.5872 49.2488 74.4918 49.4776C74.414 49.7111 74.331 49.9446 74.2531 50.1781C74.1753 50.4116 74.1182 50.5569 74.0663 50.7541C74.0663 50.7956 73.9988 50.9669 74.0663 50.9617C74.1338 50.9565 74.1078 50.9617 74.1182 50.9306C74.3466 50.7208 74.5582 50.4935 74.7513 50.2508C75.0523 49.9083 75.3532 49.5658 75.6698 49.2389C75.822 49.0745 75.9831 48.9186 76.1524 48.7718C76.2797 48.6405 76.4362 48.541 76.609 48.4812C77.128 48.3982 76.4015 49.4464 76.3392 49.5191C76.1213 49.8875 75.8877 50.2456 75.675 50.6192C75.6387 50.6815 75.3377 51.1381 75.457 51.2056C75.4771 51.2132 75.4992 51.2132 75.5193 51.2056C75.6748 51.1399 75.8172 51.0467 75.9396 50.9306C76.1212 50.7801 76.2925 50.6192 76.4586 50.4635C76.6246 50.3079 76.8062 50.1418 76.9775 49.9913C77.11 49.869 77.2628 49.7707 77.4289 49.7007C77.5016 49.7007 77.6417 49.6644 77.6832 49.7526C77.7247 49.8408 77.6832 49.9083 77.6521 49.9706C77.5857 50.128 77.5022 50.2777 77.403 50.4168C77.1487 50.806 76.8841 51.1693 76.5831 51.5481C76.4586 51.7141 76.3392 51.8854 76.225 52.067C76.1433 52.1744 76.0818 52.2957 76.0434 52.4251C76.0417 52.4406 76.0417 52.4563 76.0434 52.4718C76.0434 52.8973 76.9982 51.7401 77.4912 51.9529C77.9842 52.1656 76.4534 53.6134 75.6542 54.2206C74.8296 54.81 74.0475 55.4568 73.3139 56.1561C73.0544 56.4986 71.1707 59.8717 70.1225 60.7694" fill="#FFAC99"/>
<path d="M48.3285 98.8318C48.1105 99.3507 47.1402 106.502 47.2076 107.903C47.2751 109.304 49.3871 109.459 50.0409 109.387C50.6948 109.314 51.9662 108.738 52.7757 108.712C53.5852 108.686 58.0584 107.84 57.9286 106.636C57.7989 105.433 57.0257 104.312 56.019 104.249C55.0123 104.187 52.2827 104.364 52.2827 104.364L52.5577 97.877" fill="#FFAC99"/>
<path d="M47.462 105.957C49.6107 106.684 51.9433 106.655 54.0731 105.874C54.4705 105.741 54.8358 105.526 55.1457 105.243C55.4557 104.961 55.7036 104.618 55.8738 104.234H55.9776C56.9843 104.286 57.7678 105.423 57.9028 106.606C58.0377 107.789 53.5697 108.682 52.7654 108.682C51.9611 108.682 50.6897 109.315 50.0359 109.377C49.382 109.439 47.2648 109.315 47.1921 107.914C47.1924 107.232 47.2306 106.551 47.3063 105.874L47.462 105.957Z" fill="#212121"/>
<path d="M61.0729 46.7139C61.0729 46.7139 63.0448 48.4626 62.7075 50.4501C62.7075 50.4501 60.2219 55.3851 57.5183 56.1998C54.8147 57.0145 53.2994 51.7267 54.0363 50.9483C54.7731 50.1699 61.0729 46.7139 61.0729 46.7139Z" fill="#E76B6B"/>
<path d="M49.2524 65.0479C47.955 67.4737 47.2441 70.1698 47.1767 72.92C47.1092 76.3085 46.9172 103.454 46.9172 103.454C46.9172 103.454 49.7765 105.145 55.22 103.568C56.0088 103.339 57.0051 80.1849 57.0051 80.1849L55.1474 68.2496" fill="#424242"/>
<path d="M59.3866 107.046C59.1946 107.565 58.5926 114.767 58.7276 116.163C58.8625 117.559 60.9849 117.585 61.6335 117.502C62.2822 117.419 63.5224 116.76 64.3268 116.692C65.1311 116.625 69.5575 115.551 69.3707 114.378C69.1839 113.205 68.3329 112.1 67.3417 112.095C66.3506 112.09 63.621 112.401 63.621 112.401L63.5639 105.909" fill="#FFAC99"/>
<path d="M56.9375 98.8658C56.9037 98.7405 56.8622 98.6174 56.813 98.4973C56.304 94.9847 55.3393 91.5533 53.9433 88.2901C53.606 86.4219 53.3777 85.1765 53.357 85.0987C51.7535 78.6744 52.9522 76.9308 52.563 67.2217L59.527 67.5797C59.527 67.5797 63.3566 80.2675 64.7681 91.7098C65.1054 94.4549 65.5361 109.4 65.5361 109.4C64.414 110.102 63.1555 110.558 61.844 110.737C60.5324 110.916 59.1979 110.814 57.9287 110.438L57.7886 109.649C58.6656 106.058 57.8768 102.358 56.9375 98.8658Z" fill="#424242"/>
<path d="M59.9519 60.5306C60.1335 57.8425 61.1091 56.4311 60.4708 53.826C58.5352 51.7244 54.8924 49.1557 54.5032 49.0986L52.4275 49.576C51.5605 49.7738 50.784 50.2545 50.2203 50.9422C49.6566 51.6299 49.3377 52.4857 49.3139 53.3746C49.2049 57.526 49.0441 64.4952 49.2153 65.0504C49.3866 65.6057 53.4653 69.1032 59.4849 67.5776C59.6925 65.232 59.7755 62.8761 59.9519 60.5306Z" fill="#FA8282"/>
<path d="M59.1687 44.6585C59.1687 44.6585 60.0197 50.8856 57.7053 51.4046C55.3909 51.9235 52.8741 49.1939 52.7548 47.9122C52.6354 46.6304 56.107 42.4064 59.1687 44.6585Z" fill="#FFAC99"/>
<path d="M58.4515 41.4397C58.6954 41.5331 60.8126 42.8045 60.6777 43.6711C60.5427 44.5377 60.1587 46.4422 59.5672 46.136C58.9756 45.8299 58.9548 44.6778 58.4515 45.5393C57.9481 46.4007 57.5278 47.0493 57.0192 46.8366C56.8618 46.7752 56.6933 46.7471 56.5245 46.7543C56.3557 46.7614 56.1901 46.8036 56.0385 46.8781C56.0385 46.8781 56.0385 51.3824 55.5195 51.0866C55.0006 50.7908 52.8004 49.8567 52.0064 48.4919C51.4875 47.6305 51.3785 46.027 51.5186 44.7349C51.5474 44.1227 51.7142 43.5249 52.0064 42.9861C52.6239 42.0884 56.7286 40.7911 58.4515 41.4397Z" fill="#212121"/>
<path d="M51.981 42.9834C51.981 42.9834 49.4798 46.2111 49.6977 50.1965C49.9157 54.1818 57.0198 54.763 57.0198 54.763L56.039 46.8753" fill="#212121"/>
<path d="M72.4839 57.9335C72.319 57.3915 72.0342 56.8937 71.6506 56.4768C71.267 56.06 70.7945 55.7349 70.268 55.5257C68.3117 57.3782 65.9194 59.3865 65.1359 59.0751C63.9839 58.6133 61.685 53.2424 58.3898 52.9725C55.0946 52.7027 55.2088 57.2277 55.2088 57.2277C55.2088 57.2277 60.917 66.0495 64.0306 66.1896C66.5214 66.3141 71.0568 61.9344 72.8523 59.8224C72.7982 59.1813 72.6746 58.5479 72.4839 57.9335Z" fill="#FA8282"/>
<path d="M60.3664 113.9C62.4421 114.357 64.7254 114.689 66.3289 112.92C66.5446 112.676 66.7198 112.399 66.8478 112.1H67.3356C68.3423 112.1 69.1778 113.21 69.3646 114.383C69.5514 115.556 65.125 116.63 64.3207 116.697C63.5163 116.765 62.2709 117.424 61.6274 117.507C60.984 117.59 58.8564 117.564 58.7215 116.168C58.6912 115.376 58.705 114.582 58.763 113.791C59.2899 113.901 59.8295 113.938 60.3664 113.9Z" fill="#212121"/>
<path d="M50.4138 73.5234C50.3722 73.2225 50.8341 73.0927 50.8756 73.3937C52.6192 85.713 59.0435 97.3162 58.0783 109.999C58.0783 110.305 57.5594 110.31 57.5957 109.999C58.5609 97.3629 52.1677 85.8012 50.4138 73.5234Z" fill="#212121"/>
<path d="M61.9604 47.8418C61.8774 47.7173 62.6402 47.079 62.7181 47.0064C62.9473 46.7755 63.1994 46.5686 63.4705 46.3889C63.7699 46.244 64.0905 46.1477 64.4202 46.1034C65.24 45.8821 66.0765 45.7276 66.9214 45.6416C67.2275 45.6416 67.5441 45.6416 67.8554 45.6416C67.9696 45.6416 68.3744 45.7091 68.4678 45.6416L62.5883 49.0925L61.9604 47.8418Z" fill="#FFAC99"/>
<path d="M62.6295 49.195L62.588 49.0497L64.4873 47.2854C64.4873 47.2854 67.1857 46.7353 67.1857 47.0052C67.1857 47.275 67.3414 47.4099 66.3658 47.7576C65.5695 48.0059 64.7896 48.304 64.0306 48.6502C63.6201 48.9469 63.167 49.1796 62.6866 49.3403C62.6711 49.2677 62.6555 49.2417 62.6295 49.195Z" fill="#FFAC99"/>
<path d="M128.818 37.6823L126.893 38.3466C126.893 38.3466 125.238 38.8655 125.134 39.3325C125.03 39.7996 126.997 39.3792 127.412 39.3325C127.827 39.2858 125.58 41.4549 125.59 41.8182C125.601 42.1814 125.964 42.2333 126.224 42.1295C126.483 42.0258 125.86 42.7522 126.379 42.9079C126.546 42.9403 126.718 42.9232 126.875 42.8586C127.032 42.7941 127.166 42.6849 127.261 42.5447C127.261 42.5447 127.313 43.2712 127.832 43.1674C128.351 43.0636 130.681 40.4223 130.889 39.4934C131.096 38.5645 129.789 37.3347 128.818 37.6823Z" fill="#FFAC99"/>
<path d="M130.926 39.7166C130.926 39.7166 130.044 42.524 129.52 42.4825C128.996 42.441 128.861 41.2579 128.861 41.2579C128.861 41.2579 130.293 39.1355 130.651 38.9694C131.009 38.8033 130.926 39.7166 130.926 39.7166Z" fill="#FFAC99"/>
<path d="M133.525 17.2246C133.525 17.2246 139.472 25.8284 139.493 28.3659C139.524 31.9984 131.709 40.0522 131.709 40.0522L128.798 37.6859C128.798 37.6859 134.319 30.1459 133.593 29.409C132.866 28.6721 129.441 21.9624 129.441 21.9624" fill="#F2B557"/>
<g opacity="0.75">
<path opacity="0.75" d="M108.567 19.6489C108.567 17.8685 107.62 16.2224 106.082 15.3271L80.9485 0.704222C80.2218 0.281409 79.3082 0.358235 78.6623 0.896477L78.3922 1.12159C77.2523 2.07156 76.5931 3.4788 76.5931 4.96269V42.4573V83.6848C76.5931 84.8202 76.9795 85.9217 77.6888 86.8083L78.1334 87.364C78.5014 87.8241 78.9479 88.2155 79.4521 88.5201L102.909 102.692C103.529 103.066 104.222 103.302 104.942 103.382L106.346 103.538C107.531 103.669 108.567 102.742 108.567 101.55V19.6489Z" fill="url(#paint1_linear)"/>
<path opacity="0.75" d="M106.47 20.6611C106.47 18.9001 105.544 17.269 104.032 16.367L79.6177 1.80412C78.2845 1.00892 76.5931 1.96948 76.5931 3.52176V84.1717C76.5931 85.9327 77.5194 87.5637 79.0317 88.4658L103.446 103.029C104.779 103.824 106.47 102.863 106.47 101.311V20.6611Z" fill="url(#paint2_linear)"/>
</g>
<path d="M104.374 91.8206C104.374 91.1138 104.001 90.4594 103.392 90.0994L80.1991 76.3728C79.5325 75.9782 78.6897 76.4587 78.6897 77.2333V83.2499C78.6897 83.9568 79.0628 84.6111 79.6711 84.9711L102.864 98.6978C103.531 99.0923 104.374 98.6118 104.374 97.8372V91.8206Z" fill="url(#paint3_linear)"/>
<path d="M104.375 31.0286C104.375 30.3155 103.995 29.6563 103.378 29.2985L79.668 15.5468C79.0014 15.1601 78.1663 15.6411 78.1663 16.4118V17.1929C78.1663 17.906 78.546 18.5652 79.1629 18.9229L102.873 32.6747C103.539 33.0614 104.375 32.5803 104.375 31.8097V31.0286Z" fill="url(#paint4_linear)"/>
<path d="M104.375 37.3251C104.375 36.6093 103.992 35.9481 103.372 35.5913L84.9067 24.9739C84.24 24.5906 83.4082 25.0718 83.4082 25.8408V26.6244C83.4082 27.3402 83.7907 28.0014 84.4113 28.3582L102.876 38.9756C103.543 39.3589 104.375 38.8777 104.375 38.1087V37.3251Z" fill="url(#paint5_linear)"/>
<path d="M104.375 43.6142C104.375 42.8984 103.992 42.2372 103.372 41.8804L84.9067 31.263C84.24 30.8797 83.4082 31.3609 83.4082 32.1299V32.9135C83.4082 33.6293 83.7907 34.2905 84.4113 34.6473L102.876 45.2647C103.543 45.648 104.375 45.1668 104.375 44.3978V43.6142Z" fill="url(#paint6_linear)"/>
<path d="M104.375 49.9042C104.375 49.1884 103.992 48.5272 103.372 48.1704L84.9067 37.553C84.24 37.1697 83.4082 37.6509 83.4082 38.4199V39.2035C83.4082 39.9193 83.7907 40.5805 84.4113 40.9373L102.876 51.5547C103.543 51.938 104.375 51.4568 104.375 50.6878V49.9042Z" fill="url(#paint7_linear)"/>
<path d="M104.375 56.1943C104.375 55.4785 103.992 54.8173 103.372 54.4605L84.9067 43.8431C84.24 43.4597 83.4082 43.941 83.4082 44.71V45.4935C83.4082 46.2093 83.7907 46.8705 84.4113 47.2274L102.876 57.8447C103.543 58.2281 104.375 57.7469 104.375 56.9778V56.1943Z" fill="url(#paint8_linear)"/>
<path d="M104.375 62.4853C104.375 61.7695 103.992 61.1083 103.372 60.7515L84.9067 50.1341C84.24 49.7507 83.4082 50.232 83.4082 51.001V51.7846C83.4082 52.5003 83.7907 53.1616 84.4113 53.5184L102.876 64.1358C103.543 64.5191 104.375 64.0379 104.375 63.2689V62.4853Z" fill="url(#paint9_linear)"/>
<path d="M104.375 68.7734C104.375 68.0576 103.992 67.3964 103.372 67.0396L84.9067 56.4222C84.24 56.0388 83.4082 56.5201 83.4082 57.2891V58.0726C83.4082 58.7884 83.7907 59.4497 84.4113 59.8065L102.876 70.4238C103.543 70.8072 104.375 70.326 104.375 69.5569V68.7734Z" fill="url(#paint10_linear)"/>
<path d="M104.375 76.1113C104.375 75.3955 103.992 74.7343 103.372 74.3774L84.9067 63.7601C84.24 63.3767 83.4082 63.8579 83.4082 64.627V65.4105C83.4082 66.1263 83.7907 66.7875 84.4113 67.1443L102.876 77.7617C103.543 78.1451 104.375 77.6638 104.375 76.8948V76.1113Z" fill="url(#paint11_linear)"/>
<path d="M81.8354 24.2231C81.8354 23.5054 81.4509 22.8427 80.8277 22.4866L79.6624 21.8208C78.9958 21.4398 78.1663 21.9212 78.1663 22.689V23.4743C78.1663 24.192 78.5509 24.8547 79.174 25.2108L80.3393 25.8767C81.006 26.2576 81.8354 25.7763 81.8354 25.0084V24.2231Z" fill="url(#paint12_linear)"/>
<path d="M81.8354 30.5141C81.8354 29.7964 81.4509 29.1337 80.8277 28.7777L79.6624 28.1118C78.9958 27.7308 78.1663 28.2122 78.1663 28.98V29.7653C78.1663 30.4831 78.5509 31.1457 79.174 31.5018L80.3393 32.1677C81.006 32.5486 81.8354 32.0673 81.8354 31.2995V30.5141Z" fill="url(#paint13_linear)"/>
<path d="M81.8354 36.8042C81.8354 36.0865 81.4509 35.4238 80.8277 35.0677L79.6624 34.4018C78.9958 34.0209 78.1663 34.5022 78.1663 35.2701V36.0554C78.1663 36.7731 78.5509 37.4358 79.174 37.7919L80.3393 38.4577C81.006 38.8387 81.8354 38.3573 81.8354 37.5895V36.8042Z" fill="url(#paint14_linear)"/>
<path d="M81.8354 43.0932C81.8354 42.3755 81.4509 41.7128 80.8277 41.3568L79.6624 40.6909C78.9958 40.3099 78.1663 40.7913 78.1663 41.5591V42.3444C78.1663 43.0622 78.5509 43.7248 79.174 44.0809L80.3393 44.7468C81.006 45.1278 81.8354 44.6464 81.8354 43.8786V43.0932Z" fill="url(#paint15_linear)"/>
<path d="M81.8354 49.3833C81.8354 48.6656 81.4509 48.0029 80.8277 47.6468L79.6624 46.9809C78.9958 46.6 78.1663 47.0813 78.1663 47.8492V48.6345C78.1663 49.3522 78.5509 50.0149 79.174 50.371L80.3393 51.0368C81.006 51.4178 81.8354 50.9364 81.8354 50.1686V49.3833Z" fill="url(#paint16_linear)"/>
<path d="M81.8354 55.6743C81.8354 54.9566 81.4509 54.2939 80.8277 53.9378L79.6624 53.2719C78.9958 52.891 78.1663 53.3723 78.1663 54.1402V54.9255C78.1663 55.6432 78.5509 56.3059 79.174 56.662L80.3393 57.3279C81.006 57.7088 81.8354 57.2274 81.8354 56.4596V55.6743Z" fill="url(#paint17_linear)"/>
<path d="M81.8354 63.0122C81.8354 62.2945 81.4509 61.6318 80.8277 61.2757L79.6624 60.6098C78.9958 60.2289 78.1663 60.7102 78.1663 61.4781V62.2634C78.1663 62.9811 78.5509 63.6438 79.174 63.9999L80.3393 64.6658C81.006 65.0467 81.8354 64.5653 81.8354 63.7975V63.0122Z" fill="url(#paint18_linear)"/>
<defs>
<linearGradient id="paint0_linear" x1="138.969" y1="64.4728" x2="97.4919" y2="124.613" gradientUnits="userSpaceOnUse">
<stop stop-color="#FFE0B0" stop-opacity="0"/>
<stop offset="1" stop-color="#F2B557"/>
</linearGradient>
<linearGradient id="paint1_linear" x1="108.567" y1="0" x2="50.3182" y2="18.2328" gradientUnits="userSpaceOnUse">
<stop stop-color="#C28931"/>
<stop offset="1" stop-color="#F2B557"/>
</linearGradient>
<linearGradient id="paint2_linear" x1="106.47" y1="0" x2="51.3315" y2="15.9663" gradientUnits="userSpaceOnUse">
<stop stop-color="#F2B557"/>
<stop offset="1" stop-color="#FFE0B0"/>
</linearGradient>
<linearGradient id="paint3_linear" x1="104.374" y1="75.4795" x2="80.7134" y2="101.087" gradientUnits="userSpaceOnUse">
<stop stop-color="#C28931"/>
<stop offset="1" stop-color="#F2B557"/>
</linearGradient>
<linearGradient id="paint4_linear" x1="104.375" y1="14.6758" x2="86.8494" y2="39.4061" gradientUnits="userSpaceOnUse">
<stop stop-color="#C28931"/>
<stop offset="1" stop-color="#F2B557"/>
</linearGradient>
<linearGradient id="paint5_linear" x1="104.375" y1="24.1123" x2="89.5826" y2="44.151" gradientUnits="userSpaceOnUse">
<stop stop-color="#C28931"/>
<stop offset="1" stop-color="#F2B557"/>
</linearGradient>
<linearGradient id="paint6_linear" x1="104.375" y1="30.4014" x2="89.5826" y2="50.4401" gradientUnits="userSpaceOnUse">
<stop stop-color="#C28931"/>
<stop offset="1" stop-color="#F2B557"/>
</linearGradient>
<linearGradient id="paint7_linear" x1="104.375" y1="36.6914" x2="89.5826" y2="56.7301" gradientUnits="userSpaceOnUse">
<stop stop-color="#C28931"/>
<stop offset="1" stop-color="#F2B557"/>
</linearGradient>
<linearGradient id="paint8_linear" x1="104.375" y1="42.9814" x2="89.5826" y2="63.0202" gradientUnits="userSpaceOnUse">
<stop stop-color="#C28931"/>
<stop offset="1" stop-color="#F2B557"/>
</linearGradient>
<linearGradient id="paint9_linear" x1="104.375" y1="49.2725" x2="89.5826" y2="69.3112" gradientUnits="userSpaceOnUse">
<stop stop-color="#C28931"/>
<stop offset="1" stop-color="#F2B557"/>
</linearGradient>
<linearGradient id="paint10_linear" x1="104.375" y1="55.5605" x2="89.5826" y2="75.5993" gradientUnits="userSpaceOnUse">
<stop stop-color="#C28931"/>
<stop offset="1" stop-color="#F2B557"/>
</linearGradient>
<linearGradient id="paint11_linear" x1="104.375" y1="62.8984" x2="89.5826" y2="82.9372" gradientUnits="userSpaceOnUse">
<stop stop-color="#C28931"/>
<stop offset="1" stop-color="#F2B557"/>
</linearGradient>
<linearGradient id="paint12_linear" x1="81.8354" y1="20.9658" x2="76.6598" y2="24.3122" gradientUnits="userSpaceOnUse">
<stop stop-color="#C28931"/>
<stop offset="1" stop-color="#F2B557"/>
</linearGradient>
<linearGradient id="paint13_linear" x1="81.8354" y1="27.2568" x2="76.6598" y2="30.6032" gradientUnits="userSpaceOnUse">
<stop stop-color="#C28931"/>
<stop offset="1" stop-color="#F2B557"/>
</linearGradient>
<linearGradient id="paint14_linear" x1="81.8354" y1="33.5469" x2="76.6598" y2="36.8932" gradientUnits="userSpaceOnUse">
<stop stop-color="#C28931"/>
<stop offset="1" stop-color="#F2B557"/>
</linearGradient>
<linearGradient id="paint15_linear" x1="81.8354" y1="39.8359" x2="76.6598" y2="43.1823" gradientUnits="userSpaceOnUse">
<stop stop-color="#C28931"/>
<stop offset="1" stop-color="#F2B557"/>
</linearGradient>
<linearGradient id="paint16_linear" x1="81.8354" y1="46.126" x2="76.6598" y2="49.4723" gradientUnits="userSpaceOnUse">
<stop stop-color="#C28931"/>
<stop offset="1" stop-color="#F2B557"/>
</linearGradient>
<linearGradient id="paint17_linear" x1="81.8354" y1="52.417" x2="76.6598" y2="55.7633" gradientUnits="userSpaceOnUse">
<stop stop-color="#C28931"/>
<stop offset="1" stop-color="#F2B557"/>
</linearGradient>
<linearGradient id="paint18_linear" x1="81.8354" y1="59.7549" x2="76.6598" y2="63.1012" gradientUnits="userSpaceOnUse">
<stop stop-color="#C28931"/>
<stop offset="1" stop-color="#F2B557"/>
</linearGradient>
</defs>
</svg>
