<svg width="24" height="24" viewBox="0 0 24 24" fill="none" xmlns="http://www.w3.org/2000/svg">
<path d="M12.0005 0C5.37502 0 0 5.36802 0 11.9937C0 18.6257 5.37502 24 12.0004 24C18.6295 24 24 18.6256 24 11.9937C24.0001 5.36802 18.6295 0 12.0005 0ZM12.8557 18.6708C12.5769 18.9189 12.2539 19.0435 11.888 19.0435C11.5094 19.0435 11.1792 18.9211 10.8973 18.6758C10.615 18.4309 10.4735 18.0881 10.4735 17.6476C10.4735 17.2568 10.6104 16.928 10.8833 16.6614C11.1562 16.3949 11.4909 16.2616 11.888 16.2616C12.2788 16.2616 12.6077 16.3949 12.8747 16.6614C13.1412 16.928 13.2749 17.2568 13.2749 17.6476C13.2744 18.0817 13.1348 18.4229 12.8557 18.6708ZM16.331 10.0553C16.1169 10.4523 15.8626 10.7947 15.5676 11.0834C15.2734 11.3721 14.7445 11.8573 13.981 12.5394C13.7704 12.7318 13.601 12.9008 13.4741 13.0462C13.3472 13.1922 13.2523 13.3254 13.1904 13.4465C13.128 13.5675 13.0802 13.6886 13.0463 13.8096C13.0124 13.9302 12.9614 14.143 12.8922 14.447C12.7748 15.0921 12.4057 15.4146 11.7854 15.4146C11.4629 15.4146 11.1918 15.3094 10.9709 15.0984C10.7509 14.8874 10.6411 14.5744 10.6411 14.1588C10.6411 13.638 10.722 13.1866 10.8832 12.805C11.0436 12.4232 11.2582 12.0885 11.5248 11.7998C11.7918 11.5112 12.1513 11.1687 12.6044 10.7717C13.0015 10.4243 13.2884 10.1623 13.465 9.98563C13.6421 9.80857 13.7908 9.61161 13.9114 9.39476C14.0329 9.17747 14.0926 8.94211 14.0926 8.68781C14.0926 8.19136 13.9087 7.77305 13.5392 7.43199C13.1701 7.09094 12.6939 6.92016 12.1107 6.92016C11.4281 6.92016 10.9258 7.09227 10.6032 7.4365C10.2806 7.78072 10.0083 8.28756 9.78461 8.95751C9.5732 9.65863 9.17294 10.0091 8.58427 10.0091C8.23687 10.0091 7.9437 9.88671 7.70472 9.64185C7.46619 9.39699 7.34692 9.13184 7.34692 8.84636C7.34692 8.25727 7.53621 7.66007 7.91436 7.0552C8.29294 6.45033 8.84498 5.94933 9.57092 5.5527C10.2964 5.15562 11.1435 4.95683 12.1107 4.95683C13.0102 4.95683 13.8039 5.12305 14.4924 5.45511C15.1809 5.78666 15.713 6.23798 16.0884 6.80895C16.4634 7.37948 16.6513 7.99974 16.6513 8.66969C16.6522 9.19603 16.5451 9.65819 16.331 10.0553Z" fill="#808080"/>
</svg>
