<svg width="24" height="24" viewBox="0 0 24 24" fill="none" xmlns="http://www.w3.org/2000/svg">
<path d="M12.5893 6.85156H14.3036V11.7734L18.3214 14.2344L17.4643 15.6562L12.5893 12.6484V6.85156ZM6.42857 4.0625C8.46429 2.02083 10.8929 1 13.7143 1C16.5357 1 18.9464 2.02083 20.9464 4.0625C22.9821 6.10417 24 8.58333 24 11.5C24 14.4167 22.9821 16.8958 20.9464 18.9375C18.9464 20.9792 16.5357 22 13.7143 22C10.8929 22 8.48214 20.9792 6.48214 18.9375L8.08929 17.2422C9.66071 18.8464 11.5357 19.6484 13.7143 19.6484C15.9286 19.6484 17.8214 18.8646 19.3929 17.2969C20.9643 15.6927 21.75 13.7604 21.75 11.5C21.75 9.23958 20.9643 7.32552 19.3929 5.75781C17.8214 4.15365 15.9286 3.35156 13.7143 3.35156C11.5 3.35156 9.60714 4.15365 8.03571 5.75781C6.5 7.32552 5.73214 9.23958 5.73214 11.5H9.16071L4.55357 16.2031L4.44643 16.0391L0 11.5H3.42857C3.42857 8.58333 4.42857 6.10417 6.42857 4.0625Z" fill="#808080"/>
</svg>
