<svg
    width="24"
    height="24"
    viewBox="0 0 24 24"
    fill="none"
    xmlns="http://www.w3.org/2000/svg"
  >
    <path
      fill-rule="evenodd"
      clip-rule="evenodd"
      d="M11.9999 0C9.62658 2.09729e-05 7.30656 0.703796 5.33321 2.02233C3.35986 3.34087 1.82181 5.21495 0.913537 7.40759C0.00526573 9.60024 -0.23243 12.013 0.230506 14.3407C0.693442 16.6684 1.83622 18.8066 3.51433 20.4849C5.19244 22.1632 7.33053 23.3061 9.65821 23.7693C11.9859 24.2324 14.3987 23.995 16.5914 23.0869C18.7841 22.1788 20.6583 20.6409 21.9771 18.6677C23.2958 16.6945 23.9998 14.3745 24 12.0012C23.9965 8.81955 22.7311 5.76919 20.4815 3.51931C18.2318 1.26943 15.1816 0.00377458 11.9999 0V0ZM11.9999 21.0009C10.2198 21.0008 8.4797 20.4728 6.99967 19.4838C5.51963 18.4947 4.36613 17.089 3.68502 15.4443C3.00392 13.7997 2.82581 11.99 3.1732 10.2441C3.5206 8.49823 4.37791 6.89458 5.63672 5.63594C6.89553 4.37731 8.4993 3.52022 10.2452 3.17305C11.9911 2.82589 13.8008 3.00425 15.4454 3.68558C17.0899 4.36691 18.4955 5.52061 19.4844 7.00078C20.4732 8.48095 21.001 10.2211 21.0009 12.0012C21.0008 13.1832 20.768 14.3535 20.3156 15.4455C19.8632 16.5375 19.2002 17.5296 18.3644 18.3653C17.5286 19.201 16.5363 19.8639 15.4443 20.3161C14.3523 20.7684 13.1819 21.001 11.9999 21.0009V21.0009ZM11.9999 6.00061C11.7034 6.00084 11.4136 6.08899 11.1671 6.2539C10.9207 6.41881 10.7287 6.65309 10.6153 6.92711C10.502 7.20113 10.4725 7.5026 10.5305 7.79341C10.5885 8.08421 10.7314 8.35129 10.9411 8.56089C11.1509 8.77049 11.4181 8.91319 11.7089 8.97096C11.9998 9.02873 12.3012 8.99897 12.5752 8.88544C12.8491 8.77192 13.0832 8.57972 13.248 8.33316C13.4127 8.08659 13.5006 7.79672 13.5006 7.50019C13.5006 7.30317 13.4617 7.10809 13.3863 6.92609C13.3109 6.7441 13.2003 6.57874 13.0609 6.43948C12.9216 6.30022 12.7561 6.18979 12.5741 6.11448C12.392 6.03917 12.1969 6.00047 11.9999 6.00059V6.00061ZM12.1587 12.0012H11.8423C11.6662 12.0011 11.4917 12.0357 11.3289 12.103C11.1661 12.1703 11.0182 12.2691 10.8936 12.3936C10.7689 12.5181 10.6701 12.6659 10.6026 12.8287C10.5352 12.9914 10.5004 13.1658 10.5004 13.342V16.6587C10.5004 17.0146 10.6418 17.3559 10.8935 17.6076C11.1451 17.8592 11.4864 18.0006 11.8423 18.0006H12.1587C12.5145 18.0004 12.8557 17.859 13.1073 17.6074C13.359 17.3558 13.5004 17.0145 13.5006 16.6587V13.342C13.5004 12.9863 13.3589 12.6452 13.1072 12.3938C12.8556 12.1423 12.5144 12.0011 12.1587 12.0012V12.0012Z"
      fill='#808080'
    />
  </svg>