<svg
    width="16"
    height="15"
    viewBox="0 0 16 15"
    fill="none"
    xmlns="http://www.w3.org/2000/svg"
  >
    <path
      d="M3.74543 5.01172H0.490234V14.7871H3.74543V5.01172Z"
      fill='#808080'
    />
    <path
      d="M14.427 5.90487C13.7432 5.15844 12.8388 4.78516 11.7143 4.78516C11.3 4.78516 10.9235 4.83612 10.5847 4.93811C10.2461 5.04003 9.96008 5.18304 9.72656 5.36719C9.49317 5.55135 9.30729 5.7223 9.1693 5.88006C9.03808 6.0299 8.90976 6.20445 8.78455 6.40191V5.01188H5.53906L5.54901 5.48542C5.55568 5.80118 5.55896 6.7744 5.55896 8.40521C5.55896 10.0362 5.5524 12.1635 5.5392 14.7874H8.78455V9.33237C8.78455 8.99706 8.82051 8.73078 8.893 8.53332C9.0312 8.19777 9.23978 7.91684 9.51943 7.69005C9.79905 7.46298 10.1458 7.34956 10.5603 7.34956C11.1256 7.34956 11.5417 7.54518 11.8081 7.93646C12.0744 8.32771 12.2075 8.86863 12.2075 9.55916V14.7871H15.4529V9.18456C15.4527 7.74423 15.1109 6.65105 14.427 5.90487Z"
      fill='#808080'
    />
    <path
      d="M2.13746 0.304688C1.5917 0.304688 1.14949 0.464276 0.810728 0.783141C0.471996 1.10208 0.302734 1.50473 0.302734 1.99147C0.302734 2.47141 0.467125 2.87268 0.79594 3.19483C1.12465 3.51701 1.55874 3.67819 2.09797 3.67819H2.1177C2.67016 3.67819 3.11575 3.51715 3.45438 3.19483C3.79301 2.87268 3.95902 2.47155 3.95249 1.99147C3.94593 1.50476 3.77812 1.10208 3.4494 0.783141C3.12073 0.464138 2.68325 0.304688 2.13746 0.304688Z"
      fill='#808080'
    />
  </svg>