<svg width="32" height="32" viewBox="0 0 32 32" fill="none" xmlns="http://www.w3.org/2000/svg">
<path d="M24.1438 10.5672H22.2683V11.4545H24.1438V10.5672Z" fill="#CBCBCE"/>
<path d="M24.7624 11.3621H21.6491V12.2277H24.7624V11.3621Z" fill="#9D9D9D"/>
<path d="M21.6494 10.6147H24.7626V8.66705C24.7626 6.36842 23.8073 4.16391 22.1067 2.53852C20.4061 0.913129 18.0997 0 15.6947 0C13.2897 0 10.9833 0.913129 9.2827 2.53852C7.58213 4.16391 6.62677 6.36842 6.62677 8.66705V15.455H9.73997V8.66705C9.73997 7.15756 10.3673 5.70993 11.4841 4.64257C12.6008 3.57521 14.1154 2.97558 15.6947 2.97558C17.274 2.97558 18.7886 3.57521 19.9053 4.64257C21.022 5.70993 21.6494 7.15756 21.6494 8.66705V10.6147Z" fill="#9D9D9D"/>
<path d="M6.50188 14.6291H24.8981C25.1803 14.6291 25.451 14.7363 25.6506 14.927C25.8501 15.1178 25.9623 15.3765 25.9623 15.6462V21.5866C25.9623 22.8749 25.6968 24.1506 25.1809 25.3409C24.6651 26.5311 23.9091 27.6126 22.956 28.5235C22.0028 29.4346 20.8714 30.1572 19.626 30.6502C18.3807 31.1432 17.046 31.3969 15.6981 31.3969C12.9759 31.3969 10.3652 30.3633 8.44026 28.5235C6.51535 26.6838 5.43396 24.1884 5.43396 21.5866V15.6462C5.43396 15.5124 5.46161 15.3798 5.51532 15.2561C5.56904 15.1326 5.64776 15.0203 5.74698 14.9258C5.84619 14.8313 5.96395 14.7564 6.09349 14.7055C6.22304 14.6546 6.36182 14.6286 6.50188 14.6291Z" fill="#FFCC00"/>
<g style="mix-blend-mode:multiply">
<g style="mix-blend-mode:multiply">
<path d="M17.9067 20.7672C17.9091 20.3937 17.808 20.0262 17.6136 19.7022C17.4191 19.3782 17.1383 19.1093 16.7998 18.9228C16.4612 18.7362 16.077 18.6388 15.6862 18.6404C15.2955 18.6419 14.9121 18.7424 14.5752 18.9316C14.2383 19.1208 13.9598 19.392 13.7682 19.7175C13.5766 20.043 13.4786 20.4112 13.4843 20.7847C13.49 21.1582 13.5992 21.5235 13.8006 21.8435C14.0021 22.1636 14.2887 22.4269 14.6312 22.6066V25.0844C14.6312 25.218 14.6587 25.3503 14.7122 25.4737C14.7657 25.5971 14.8441 25.7092 14.9429 25.8037C15.0417 25.8981 15.159 25.973 15.2882 26.0242C15.4172 26.0752 15.5556 26.1016 15.6953 26.1016C15.8351 26.1016 15.9735 26.0752 16.1026 26.0242C16.2317 25.973 16.349 25.8981 16.4478 25.8037C16.5467 25.7092 16.625 25.5971 16.6785 25.4737C16.732 25.3503 16.7595 25.218 16.7595 25.0844V22.6066C17.1059 22.4266 17.3951 22.1609 17.597 21.8372C17.7988 21.5135 17.9058 21.144 17.9067 20.7672Z" fill="black"/>
</g>
</g>
</svg>
