<svg width="24" height="24" viewBox="0 0 24 24" fill="none" xmlns="http://www.w3.org/2000/svg">
<path fill-rule="evenodd" clip-rule="evenodd" d="M9.96905 0.525349C9.78312 0.632949 9.65795 0.809859 9.59628 1.01564C9.49713 1.34653 9.33518 1.94543 9.16201 2.8264C8.5902 3.0031 8.04123 3.23179 7.5206 3.50694C6.77493 3.00624 6.23673 2.69715 5.93258 2.53325C5.74346 2.43134 5.52986 2.39476 5.3223 2.45015C4.91887 2.55781 4.19623 2.83326 3.51473 3.51477C2.83322 4.19627 2.55776 4.91891 2.45011 5.32234C2.39472 5.5299 2.4313 5.74351 2.53321 5.93262C2.69711 6.23678 3.0062 6.77498 3.50691 7.52066C3.23177 8.04127 3.00309 8.59023 2.8264 9.16201C1.94543 9.33518 1.34653 9.49713 1.01564 9.59628C0.809858 9.65795 0.632947 9.78312 0.525347 9.96905C0.316206 10.3304 0 11.0362 0 12C0 12.9638 0.316206 13.6696 0.525346 14.0309C0.632947 14.2169 0.809859 14.3421 1.01564 14.4037C1.34653 14.5029 1.94543 14.6648 2.8264 14.838C3.00309 15.4098 3.23177 15.9587 3.50691 16.4793C3.00616 17.225 2.69706 17.7633 2.53315 18.0674C2.43124 18.2566 2.39466 18.4702 2.45005 18.6777C2.55771 19.0811 2.83317 19.8038 3.51467 20.4853C4.19617 21.1668 4.91882 21.4423 5.32224 21.5499C5.5298 21.6053 5.74341 21.5687 5.93252 21.4668C6.23669 21.3029 6.77491 20.9938 7.52062 20.4931C8.04124 20.7682 8.59021 20.9969 9.16201 21.1736C9.33518 22.0546 9.49713 22.6535 9.59628 22.9844C9.65795 23.1901 9.78312 23.3671 9.96906 23.4747C10.3304 23.6838 11.0362 24 12 24C12.9638 24 13.6696 23.6838 14.0309 23.4747C14.2169 23.3671 14.3421 23.1901 14.4037 22.9844C14.5029 22.6535 14.6648 22.0546 14.838 21.1736C15.4098 20.9969 15.9587 20.7682 16.4793 20.4931C17.225 20.9938 17.7633 21.3029 18.0674 21.4668C18.2566 21.5688 18.4702 21.6053 18.6777 21.5499C19.0811 21.4423 19.8038 21.1668 20.4853 20.4853C21.1668 19.8038 21.4423 19.0812 21.5499 18.6778C21.6053 18.4702 21.5687 18.2566 21.4668 18.0675C21.3029 17.7633 20.9938 17.2251 20.4931 16.4794C20.7682 15.9588 20.9969 15.4098 21.1736 14.838C22.0546 14.6648 22.6535 14.5029 22.9844 14.4037C23.1901 14.3421 23.3671 14.2169 23.4747 14.0309C23.6838 13.6696 24 12.9638 24 12C24 11.0362 23.6838 10.3304 23.4747 9.96905C23.3671 9.78312 23.1901 9.65795 22.9844 9.59628C22.6535 9.49713 22.0546 9.33518 21.1736 9.16201C20.9969 8.59021 20.7682 8.04123 20.4931 7.5206C20.9938 6.77493 21.3028 6.23673 21.4668 5.93258C21.5687 5.74346 21.6052 5.52986 21.5499 5.3223C21.4422 4.91887 21.1667 4.19623 20.4852 3.51473C19.8037 2.83322 19.0811 2.55776 18.6777 2.45011C18.4701 2.39472 18.2565 2.4313 18.0674 2.53321C17.7632 2.69711 17.225 3.0062 16.4793 3.50691C15.9587 3.23177 15.4098 3.00309 14.838 2.8264C14.6648 1.94543 14.5029 1.34653 14.4037 1.01564C14.3421 0.809859 14.2169 0.632949 14.0309 0.525348C13.6696 0.316208 12.9638 0 12 0C11.0362 0 10.3304 0.316208 9.96905 0.525349ZM12 16.8C14.651 16.8 16.8 14.651 16.8 12C16.8 9.34903 14.651 7.2 12 7.2C9.34903 7.2 7.2 9.34903 7.2 12C7.2 14.651 9.34903 16.8 12 16.8Z" fill="#808080"/>
</svg>
