<svg width="24" height="24" viewBox="0 0 24 24" fill="none" xmlns="http://www.w3.org/2000/svg">
<path d="M18.4187 0H5.58127C3.5978 0 2 1.57823 2 3.53741V20.4354C2 22.3946 3.5978 24 5.58127 24H18.4187C20.4022 24 22 22.4218 22 20.4626V3.53741C22 1.57823 20.4022 0 18.4187 0ZM9.05234 6.69388H14.9752C15.4435 6.69388 15.8017 7.04762 15.8017 7.5102C15.8017 7.97279 15.4435 8.32653 14.9752 8.32653H9.05234C8.58402 8.32653 8.22589 7.97279 8.22589 7.5102C8.22589 7.04762 8.58402 6.69388 9.05234 6.69388ZM17.0689 17.3061H6.90358C6.43526 17.3061 6.07713 16.9524 6.07713 16.4898C6.07713 16.0272 6.46281 15.6735 6.90358 15.6735H17.0689C17.5372 15.6735 17.8953 16.0272 17.8953 16.4898C17.8953 16.9524 17.5372 17.3061 17.0689 17.3061ZM17.0689 12.8163H6.90358C6.43526 12.8163 6.07713 12.4626 6.07713 12C6.07713 11.5374 6.46281 11.1837 6.90358 11.1837H17.0689C17.5372 11.1837 17.8953 11.5374 17.8953 12C17.8953 12.4626 17.5372 12.8163 17.0689 12.8163Z" fill="#808080"/>
</svg>
