<svg width="24" height="24" viewBox="0 0 24 24" fill="none" xmlns="http://www.w3.org/2000/svg">
<path d="M19.4854 16.6154L22 19.0962V20.3077H2V19.0962L4.51462 16.6154V10.5C4.51462 8.57692 5.00195 6.90385 5.97661 5.48077C6.99025 4.05769 8.37427 3.13462 10.1287 2.71154V1.84615C10.1287 1.34615 10.3041 0.923077 10.655 0.576923C11.0058 0.192308 11.4542 0 12 0C12.5458 0 12.9942 0.192308 13.345 0.576923C13.6959 0.923077 13.8713 1.34615 13.8713 1.84615V2.71154C15.6257 3.13462 16.9903 4.05769 17.9649 5.48077C18.9786 6.90385 19.4854 8.57692 19.4854 10.5V16.6154ZM12 24C11.2982 24 10.694 23.7692 10.1871 23.3077C9.7193 22.8077 9.48538 22.2308 9.48538 21.5769H14.5146C14.5146 22.2308 14.2612 22.8077 13.7544 23.3077C13.2476 23.7692 12.6628 24 12 24Z" fill="#808080"/>
</svg>
