<svg width="24" height="24" viewBox="0 0 24 24" fill="none" xmlns="http://www.w3.org/2000/svg">
<path d="M23.9741 0C23.931 0 21.4463 0.102413 20.7647 0.119482C20.6546 0.122153 20.5496 0.166432 20.4714 0.243231L10.5931 10.0151C8.99731 9.26988 7.18532 9.11134 5.48205 9.56795C3.77879 10.0246 2.29565 11.0664 1.29858 12.5068C0.301498 13.9471 -0.144305 15.6917 0.0411018 17.4277C0.226509 19.1637 1.031 20.7777 2.31032 21.9801C3.58965 23.1825 5.26013 23.8948 7.02224 23.9892C8.78436 24.0837 10.5229 23.5541 11.926 22.4954C13.3292 21.4367 14.3052 19.9182 14.6791 18.2122C15.053 16.5061 14.8004 14.7241 13.9664 13.1857L15.6919 11.4788L18.3707 11.4532C18.4807 11.4534 18.5867 11.4119 18.6669 11.3374C18.7471 11.2628 18.7954 11.1607 18.802 11.0521L18.953 8.62402C18.9596 8.51534 19.008 8.41327 19.0882 8.3387C19.1683 8.26413 19.2743 8.2227 19.3844 8.2229L21.6792 8.18023C21.7893 8.18042 21.8953 8.139 21.9755 8.06443C22.0557 7.98986 22.104 7.88779 22.1106 7.77911L22.2788 4.97982L23.7757 3.49911C23.8523 3.42281 23.897 3.32069 23.9008 3.2132L24 0.0512068C24 0.0512068 23.9827 0 23.9741 0ZM7.38806 19.5822C7.08645 19.8806 6.70214 20.0839 6.28373 20.1663C5.86533 20.2487 5.43163 20.2065 5.03748 20.045C4.64333 19.8835 4.30644 19.61 4.06942 19.2592C3.83239 18.9083 3.70588 18.4957 3.70588 18.0737C3.70588 17.6517 3.83239 17.2392 4.06942 16.8883C4.30644 16.5374 4.64333 16.2639 5.03748 16.1025C5.43163 15.941 5.86533 15.8988 6.28373 15.9812C6.70214 16.0636 7.08645 16.2668 7.38806 16.5653C7.7924 16.9654 8.01955 17.508 8.01955 18.0737C8.01955 18.6395 7.7924 19.1821 7.38806 19.5822Z" fill="#808080"/>
</svg>
