<svg width="24" height="24" viewBox="0 0 24 24" fill="none" xmlns="http://www.w3.org/2000/svg">
<path d="M4.07018 16.7018C6.83041 15.5789 9.47368 15.0175 12 15.0175C14.5263 15.0175 17.1462 15.5789 19.8596 16.7018C22.6199 17.7778 24 19.2047 24 20.9825V24H0V20.9825C0 19.2047 1.35673 17.7778 4.07018 16.7018ZM16.2105 10.2456C15.0409 11.4152 13.6374 12 12 12C10.3626 12 8.95906 11.4152 7.78947 10.2456C6.61988 9.07602 6.03509 7.67251 6.03509 6.03509C6.03509 4.39766 6.61988 2.99415 7.78947 1.82456C8.95906 0.608187 10.3626 0 12 0C13.6374 0 15.0409 0.608187 16.2105 1.82456C17.3801 2.99415 17.9649 4.39766 17.9649 6.03509C17.9649 7.67251 17.3801 9.07602 16.2105 10.2456Z" fill="#808080"/>
</svg>
