<svg width="154" height="151" viewBox="0 0 154 151" fill="none" xmlns="http://www.w3.org/2000/svg">
<path d="M89.1273 12.6447C89.1273 12.6447 106.777 -8.25776 131.307 3.6865C155.838 15.6308 162.917 69.38 136.991 102.923C111.065 136.467 79.1557 161.351 37.9728 143.733C-3.21011 126.115 -11.1874 78.7363 18.3286 49.4729C39.8674 32.3527 60.9076 44.4961 89.1273 12.6447Z" fill="#F2F2F2"/>
<path d="M116.079 150.002H58.4658C53.9901 150.002 50.3477 146.354 50.3477 141.872V22.4038C50.3477 17.9216 53.9901 14.2739 58.4658 14.2739H116.079C120.554 14.2739 124.197 17.9216 124.197 22.4038V141.872C124.197 146.354 120.578 150.002 116.079 150.002Z" fill="#171717"/>
<path d="M121.551 29.6997H53.667V134.707H121.551V29.6997Z" fill="white"/>
<path d="M96.3448 23.4533H82.394C81.6798 23.4533 81.1084 22.8811 81.1084 22.1658C81.1084 21.4506 81.6798 20.8784 82.394 20.8784H96.3448C97.059 20.8784 97.6304 21.4506 97.6304 22.1658C97.6304 22.8811 97.059 23.4533 96.3448 23.4533Z" fill="#E6E6E6"/>
<path d="M100.01 142.586H78.1547C77.4405 142.586 76.8691 142.013 76.8691 141.298C76.8691 140.583 77.4405 140.011 78.1547 140.011H100.01C100.724 140.011 101.295 140.583 101.295 141.298C101.295 142.013 100.724 142.586 100.01 142.586Z" fill="#E6E6E6"/>
<path d="M134.792 99.402H121.317L100.89 116.592L105.223 99.402H28.7554C26.0652 99.402 23.875 97.2087 23.875 94.5146V42.1355C23.875 39.4414 26.0652 37.248 28.7554 37.248H134.768C137.458 37.248 139.648 39.4414 139.648 42.1355V94.5146C139.672 97.2325 137.482 99.402 134.792 99.402Z" fill="#5C5C5C"/>
<path d="M58.3298 61.0234H56.2109V62.0725H58.3298V61.0234Z" fill="#B4B4BB"/>
<path d="M59.0215 61.9512H55.498V62.9764H59.0215V61.9512Z" fill="#FEFEFF"/>
<path d="M55.4984 61.0707H59.0218V58.7581C59.0218 53.1077 54.4271 48.5063 48.7849 48.5063C43.1426 48.5063 38.5479 53.1077 38.5479 58.7581V66.7926H42.0713V58.7581C42.0713 55.0388 45.0948 52.011 48.8087 52.011C52.5225 52.011 55.546 55.0388 55.546 58.7581V61.0707H55.4984Z" fill="#FEFEFF"/>
<path d="M48.7815 85.6712C42.3774 85.6712 37.1875 80.4738 37.1875 74.0606V67.0274C37.1875 66.3599 37.7351 65.8115 38.4017 65.8115H59.1851C59.8517 65.8115 60.3993 66.3599 60.3993 67.0274V74.0606C60.3755 80.4738 55.1855 85.6712 48.7815 85.6712Z" fill="#FFCC00"/>
<path opacity="0.85" d="M51.2778 73.0839C51.2778 71.7011 50.1589 70.5806 48.778 70.5806C47.3972 70.5806 46.2783 71.7011 46.2783 73.0839C46.2783 74.0375 46.8021 74.8481 47.5639 75.2773V78.2098C47.5639 78.8773 48.1115 79.4257 48.778 79.4257C49.4446 79.4257 49.9922 78.8773 49.9922 78.2098V75.2773C50.754 74.8481 51.2778 74.0375 51.2778 73.0839Z" fill="#301300"/>
<path d="M115.843 79.3954H80.1327C74.6095 79.3954 70.1338 74.8179 70.1338 69.1675V68.953C70.1338 63.3026 74.6095 58.7251 80.1327 58.7251H115.843C121.366 58.7251 125.842 63.3026 125.842 68.953V69.1675C125.842 74.8179 121.366 79.3954 115.843 79.3954Z" fill="#E6E6E6"/>
<path d="M116.152 79.3977H81.584C76.2274 79.3977 71.8945 75.2255 71.8945 70.0996V69.9089C71.8945 64.783 76.2274 60.6108 81.584 60.6108H116.152C121.508 60.6108 125.841 64.783 125.841 69.9089V70.0996C125.841 75.2493 121.508 79.3977 116.152 79.3977Z" fill="white"/>
<path d="M82.5357 64.2568H84.9878L84.6545 67.8569L87.6304 65.8542L88.8207 68.0476L85.6306 69.4781L88.8207 70.8847L87.6304 73.0781L84.6545 71.0754L84.9878 74.6754H82.5357L82.8928 71.0754L79.9169 73.0781L78.7266 70.8847L81.9167 69.4781L78.7266 68.0476L79.9169 65.8542L82.8928 67.8569L82.5357 64.2568Z" fill="#5C5C5C"/>
<path d="M97.5337 64.2573H99.9858L99.6525 67.8573L102.628 65.8547L103.819 68.0481L100.629 69.4785L103.819 70.8852L102.628 73.0786L99.6525 71.0759L99.9858 74.6759H97.5337L97.8908 71.0759L94.915 73.0786L93.7246 70.8852L96.9147 69.4785L93.7246 68.0481L94.915 65.8547L97.8908 67.8573L97.5337 64.2573Z" fill="#5C5C5C"/>
<path d="M112.528 64.2573H114.98L114.647 67.8573L117.623 65.8547L118.813 68.0481L115.623 69.4785L118.813 70.8852L117.623 73.0786L114.647 71.0759L114.98 74.6759H112.528L112.885 71.0759L109.909 73.0786L108.719 70.8852L111.909 69.4785L108.719 68.0481L109.909 65.8547L112.885 67.8573L112.528 64.2573Z" fill="#5C5C5C"/>
</svg>
