<svg width="225" height="170" viewBox="0 0 225 170" fill="none" xmlns="http://www.w3.org/2000/svg">
<path opacity="0.42" d="M48.4813 157.662C48.4813 157.662 30.3069 158.934 22.8369 155.868C15.3669 152.802 20.7276 143.999 28.0063 142.081C35.2851 140.163 39.6894 150.699 42.9407 140.956C46.1919 131.214 54.6857 126.359 60.1138 132.986C65.5419 139.612 71.0938 141.721 76.8369 135.798C82.5801 129.875 87.8732 134.712 90.2019 143.392C92.5307 152.071 119.536 135.416 129.881 138.667C140.225 141.918 148.072 151.497 154.389 141.159C160.706 130.82 168.176 128.137 172.389 134.262C176.602 140.388 177.941 147.667 185.411 142.137C192.881 136.608 203.028 141.575 200.154 148.072C197.279 154.569 178.031 156.779 178.031 156.779C178.031 156.779 66.2732 151.222 48.4813 157.662Z" fill="#E6E6E6"/>
<path d="M102.971 124.728C102.971 124.728 106.998 138.189 99.1457 142.166C91.2932 146.143 86.5569 139.95 78.3669 145.406C70.1769 150.862 74.4913 131.906 61.9982 132.766C49.5051 133.627 54.1907 143.516 54.1907 143.516C54.1907 143.516 43.4244 133.02 37.8444 142.166C32.2644 151.312 34.9588 159.907 60.1138 157.32C85.2688 154.732 103.724 158.253 125.516 157.786C147.307 157.32 187.391 161.628 189.528 149.568C191.666 137.508 180.478 132.159 168.845 138.92C157.213 145.681 159.159 130.1 145.693 137.233C132.226 144.365 116.296 152.578 112.224 121.033L102.971 124.728Z" fill="#E6E6E6"/>
<path opacity="0.3" d="M77.4617 10.1129C48.6279 16.4635 29.4129 44.2904 34.7398 73.3323C37.2767 87.1923 45.4273 100.945 65.9079 107.369C115.059 122.782 170.46 115.092 180.225 84.7567C189.99 54.421 183.673 34.8854 159.834 19.6642C144.433 9.83167 107.584 3.47542 77.4617 10.1129Z" fill="#E6E6E6"/>
<path d="M196.076 58.308C196.076 57.7343 195.963 57.1663 195.743 56.6363C195.523 56.1064 195.201 55.6249 194.796 55.2195C194.39 54.8141 193.908 54.4927 193.377 54.2737C192.847 54.0546 192.279 53.9423 191.705 53.943C191.47 53.9438 191.234 53.9645 191.002 54.0049C190.5 53.0658 189.753 52.2808 188.839 51.7339C187.926 51.1869 186.881 50.8987 185.816 50.8999H185.602C185.863 49.869 185.886 48.792 185.667 47.7512C185.449 46.7104 184.996 45.7331 184.343 44.8939C183.69 44.0547 182.853 43.3757 181.898 42.9086C180.943 42.4415 179.893 42.1987 178.83 42.1987C177.766 42.1987 176.717 42.4415 175.761 42.9086C174.806 43.3757 173.97 44.0547 173.317 44.8939C172.663 45.7331 172.21 46.7104 171.992 47.7512C171.774 48.792 171.796 49.869 172.057 50.8999H171.843C170.282 50.8999 168.784 51.5204 167.679 52.6249C166.575 53.7293 165.954 55.2273 165.954 56.7893C165.954 58.3512 166.575 59.8492 167.679 60.9537C168.784 62.0582 170.282 62.6786 171.843 62.6786H192.273V62.6336C193.324 62.4971 194.29 61.9829 194.989 61.187C195.689 60.391 196.075 59.3678 196.076 58.308Z" fill="#E6E6E6"/>
<path d="M53.8818 86.422C53.8804 85.2444 53.4115 84.1155 52.5783 83.2834C51.7451 82.4512 50.6157 81.9838 49.4381 81.9838C49.2005 81.9844 48.9634 82.0051 48.7293 82.0457C48.2175 81.0917 47.4565 80.2943 46.5274 79.7386C45.5982 79.1829 44.5357 78.8897 43.4531 78.8901H43.2337C43.3786 78.3278 43.4523 77.7495 43.4531 77.1688C43.401 75.3185 42.6294 73.5614 41.3022 72.2711C39.9751 70.9807 38.197 70.2588 36.3459 70.2588C34.4948 70.2588 32.7168 70.9807 31.3896 72.2711C30.0624 73.5614 29.2908 75.3185 29.2387 77.1688C29.2423 77.7493 29.316 78.3272 29.4581 78.8901H29.2387C27.6824 78.9378 26.2058 79.5895 25.1219 80.7073C24.0379 81.825 23.4316 83.3209 23.4316 84.8779C23.4316 86.4349 24.0379 87.9308 25.1219 89.0485C26.2058 90.1662 27.6824 90.818 29.2387 90.8657H50.0175V90.8263C51.0862 90.6858 52.0674 90.1615 52.7784 89.3513C53.4893 88.541 53.8815 87.4999 53.8818 86.422Z" fill="#E6E6E6"/>
<path d="M70.026 44.7746C74.9499 44.7746 78.9416 40.7829 78.9416 35.859C78.9416 30.935 74.9499 26.9434 70.026 26.9434C65.102 26.9434 61.1104 30.935 61.1104 35.859C61.1104 40.7829 65.102 44.7746 70.026 44.7746Z" fill="#FFD200"/>
<path opacity="0.22" d="M70.0253 50.2982C78 50.2982 84.4647 43.8335 84.4647 35.8588C84.4647 27.8842 78 21.4194 70.0253 21.4194C62.0507 21.4194 55.5859 27.8842 55.5859 35.8588C55.5859 43.8335 62.0507 50.2982 70.0253 50.2982Z" fill="#FFD200"/>
<path d="M92.7001 45.2017L92.1882 46.4561C91.3491 48.4938 90.9172 50.6761 90.917 52.8798V113.99H97.3126V52.8798C97.3124 50.6761 96.8805 48.4938 96.0414 46.4561L95.5295 45.2017C95.4161 44.9193 95.2208 44.6772 94.9687 44.5067C94.7165 44.3362 94.4192 44.2451 94.1148 44.2451C93.8104 44.2451 93.5131 44.3362 93.2609 44.5067C93.0088 44.6772 92.8135 44.9193 92.7001 45.2017Z" fill="#FFD200"/>
<path d="M111.493 17.6339L111.431 17.572C111.255 17.3958 111.047 17.256 110.817 17.1606C110.587 17.0652 110.341 17.0161 110.092 17.0161C109.843 17.0161 109.597 17.0652 109.367 17.1606C109.138 17.256 108.929 17.3958 108.753 17.572L108.692 17.6339C103.539 22.883 100.631 29.932 100.586 37.2876V115.948C100.606 116.402 100.806 116.83 101.141 117.138C101.476 117.446 101.92 117.608 102.375 117.59H117.81C118.264 117.608 118.708 117.446 119.043 117.138C119.378 116.83 119.578 116.402 119.598 115.948V37.2876C119.553 29.932 116.646 22.883 111.493 17.6339Z" fill="#F2B557"/>
<path opacity="0.08" d="M112.41 55.0229L119.599 58.4036V89.5717L106.616 72.2973L112.41 55.0229Z" fill="black"/>
<path d="M111.032 53.2907L110.993 53.2457C110.88 53.1185 110.741 53.0167 110.586 52.947C110.431 52.8773 110.263 52.8413 110.093 52.8413C109.923 52.8413 109.754 52.8773 109.599 52.947C109.444 53.0167 109.306 53.1185 109.193 53.2457L109.153 53.2907C105.649 57.2513 103.714 62.3571 103.714 67.6457V125.099C103.713 125.257 103.744 125.414 103.803 125.56C103.863 125.706 103.951 125.838 104.063 125.95C104.174 126.062 104.306 126.151 104.452 126.211C104.598 126.272 104.754 126.303 104.912 126.303H115.268C115.587 126.303 115.893 126.176 116.119 125.951C116.345 125.725 116.471 125.419 116.471 125.099V67.6457C116.471 62.3571 114.537 57.2513 111.032 53.2907Z" fill="#F2B557"/>
<path opacity="0.32" d="M111.032 53.2907L110.993 53.2457C110.88 53.1185 110.741 53.0167 110.586 52.947C110.431 52.8773 110.263 52.8413 110.093 52.8413C109.923 52.8413 109.754 52.8773 109.599 52.947C109.444 53.0167 109.306 53.1185 109.193 53.2457L109.153 53.2907C105.649 57.2513 103.714 62.3571 103.714 67.6457V125.099C103.713 125.257 103.744 125.414 103.803 125.56C103.863 125.706 103.951 125.838 104.063 125.95C104.174 126.062 104.306 126.151 104.452 126.211C104.598 126.272 104.754 126.303 104.912 126.303H115.268C115.587 126.303 115.893 126.176 116.119 125.951C116.345 125.725 116.471 125.419 116.471 125.099V67.6457C116.471 62.3571 114.537 57.2513 111.032 53.2907Z" fill="white"/>
<path d="M127.485 45.2021L127.997 46.4564C128.834 48.4945 129.264 50.6768 129.263 52.8802V113.99H122.884V52.8802C122.885 50.6771 123.315 48.4953 124.149 46.4564L124.667 45.2021C124.782 44.9231 124.977 44.6845 125.228 44.5167C125.479 44.3489 125.774 44.2593 126.076 44.2593C126.378 44.2593 126.673 44.3489 126.924 44.5167C127.175 44.6845 127.37 44.9231 127.485 45.2021Z" fill="#FFD200"/>
<path d="M119.599 68.2192H122.884V58.4036H119.599V68.2192Z" fill="#24285B"/>
<path opacity="0.08" d="M122.89 71.583H129.269V55.023H122.89V71.583Z" fill="black"/>
<path d="M103.714 73.9175L99.5066 94.5725C98.5761 99.1907 96.2839 103.424 92.9254 106.728L85.1741 114.344C84.3827 115.124 83.8021 116.092 83.4866 117.157L82.6879 119.862C82.5758 120.243 82.5491 120.643 82.6099 121.035C82.6706 121.427 82.8173 121.8 83.0393 122.129C83.2613 122.457 83.5532 122.732 83.8941 122.935C84.2349 123.137 84.6164 123.262 85.011 123.299L103.725 125.099L103.714 73.9175Z" fill="#24285B"/>
<path d="M116.471 73.9175L120.673 94.5725C121.607 99.1905 123.901 103.424 127.26 106.728L135 114.316C135.791 115.096 136.372 116.064 136.687 117.129L137.492 119.857C137.604 120.237 137.63 120.637 137.57 121.029C137.509 121.421 137.362 121.794 137.14 122.123C136.918 122.451 136.626 122.727 136.285 122.929C135.945 123.131 135.563 123.256 135.168 123.294L116.454 125.094L116.471 73.9175Z" fill="#24285B"/>
<path d="M100.587 58.4038H97.3018V68.2194H100.587V58.4038Z" fill="#24285B"/>
<path opacity="0.08" d="M97.2957 55.0229H90.917V71.583H97.2957V55.0229Z" fill="black"/>
<path d="M107.534 112.19L103.945 117.174C102.598 119.04 101.873 121.284 101.875 123.586V130.966H118.311V123.603C118.31 121.302 117.586 119.058 116.241 117.191L112.653 112.207C112.362 111.799 111.979 111.467 111.535 111.237C111.09 111.007 110.598 110.886 110.097 110.885C109.597 110.883 109.104 111.001 108.658 111.228C108.212 111.455 107.827 111.785 107.534 112.19Z" fill="#24285B"/>
<path d="M113.282 62.752H106.622V65.452H113.282V62.752Z" fill="#24285B"/>
<path opacity="0.34" d="M110.093 28.7715H110.087C107.751 28.7715 105.857 30.6653 105.857 33.0015V44.6621C105.857 46.9983 107.751 48.8921 110.087 48.8921H110.093C112.429 48.8921 114.323 46.9983 114.323 44.6621V33.0015C114.323 30.6653 112.429 28.7715 110.093 28.7715Z" fill="white"/>
</svg>
