<svg width="24" height="24" viewBox="0 0 24 24" fill="none" xmlns="http://www.w3.org/2000/svg">
<path d="M4.56836 13.319C5.76944 14.5201 7.22788 15.1206 8.9437 15.1206C10.6595 15.1206 12.118 14.5201 13.319 13.319C14.5201 12.118 15.1206 10.6595 15.1206 8.9437C15.1206 7.22788 14.5201 5.76944 13.319 4.56836C12.118 3.36729 10.6595 2.76676 8.9437 2.76676C7.22788 2.76676 5.76944 3.36729 4.56836 4.56836C3.36729 5.76944 2.76676 7.22788 2.76676 8.9437C2.76676 10.6595 3.36729 12.118 4.56836 13.319ZM17.1796 15.1206L24 21.941L21.941 24L15.1206 17.1796V16.0858L14.7346 15.6997C13.1046 17.1153 11.1743 17.8231 8.9437 17.8231C6.45576 17.8231 4.33244 16.9651 2.57373 15.2493C0.857909 13.5335 0 11.4316 0 8.9437C0 6.45576 0.857909 4.35389 2.57373 2.63807C4.33244 0.879357 6.45576 0 8.9437 0C11.4316 0 13.5335 0.879357 15.2493 2.63807C16.9651 4.35389 17.8231 6.45576 17.8231 8.9437C17.8231 11.1743 17.1153 13.1046 15.6997 14.7346L16.0858 15.1206H17.1796Z" fill="#808080"/>
</svg>
