<svg width="24" height="24" viewBox="0 0 24 24" fill="none" xmlns="http://www.w3.org/2000/svg">
<path d="M21.7146 3.35892C21.6724 3.04948 21.4542 2.79495 21.1593 2.71129L11.706 0.0287061C11.5712 -0.00956869 11.4289 -0.00956869 11.294 0.0287061L1.84075 2.71129C1.54579 2.79495 1.3276 3.04938 1.28538 3.35892C1.23055 3.76123 -0.0202881 13.2668 3.18802 17.9955C6.39253 22.7185 11.1199 23.9289 11.3195 23.9781C11.3789 23.9928 11.4393 24 11.5 24C11.5607 24 11.6211 23.9927 11.6805 23.9781C11.8802 23.9289 16.6076 22.7185 19.812 17.9955C23.0203 13.2669 21.7695 3.76133 21.7146 3.35892ZM17.5961 8.90835L11.1481 15.4879C10.998 15.641 10.8013 15.7177 10.6046 15.7177C10.4079 15.7177 10.2111 15.6411 10.0611 15.4879L6.07432 11.4198C5.93012 11.2728 5.84916 11.0733 5.84916 10.8653C5.84916 10.6573 5.93022 10.4577 6.07432 10.3107L6.86591 9.50296C7.16609 9.19677 7.6528 9.19666 7.95288 9.50296L10.6046 12.2088L15.7176 6.99137C15.8617 6.84423 16.0572 6.76161 16.2611 6.76161C16.4649 6.76161 16.6604 6.84423 16.8045 6.99137L17.5961 7.79911C17.8963 8.10541 17.8963 8.60204 17.5961 8.90835Z" fill="#808080"/>
</svg>
