<svg width="20" height="20" viewBox="0 0 20 20" fill="none" xmlns="http://www.w3.org/2000/svg">
<path d="M8.2039 1.66676C8.93552 0.173145 11.0645 0.173142 11.7961 1.66676L13.2449 4.62447C13.5348 5.21628 14.0976 5.62731 14.7495 5.72334L18.0179 6.20474C19.653 6.44557 20.3069 8.45307 19.1274 9.61074L16.7461 11.948C16.2787 12.4068 16.0655 13.0653 16.1754 13.711L16.7343 16.9948C17.0128 18.6308 15.2925 19.8747 13.8262 19.0976L10.9365 17.5662C10.3508 17.2558 9.64925 17.2558 9.06349 17.5662L6.17384 19.0976C4.70748 19.8747 2.98723 18.6308 3.26568 16.9948L3.82459 13.711C3.93448 13.0653 3.7213 12.4068 3.2539 11.948L0.872578 9.61074C-0.306903 8.45307 0.347049 6.44557 1.9821 6.20474L5.25045 5.72334C5.90241 5.62731 6.46523 5.21628 6.75511 4.62448L8.2039 1.66676Z" fill="#808080"/>
</svg>
