<svg width="24" height="24" viewBox="0 0 24 24" fill="none" xmlns="http://www.w3.org/2000/svg">
<path d="M15.6056 5.40845V8.39437L10.8169 8.39437L10.8169 10.8169L15.6056 10.8169V13.8028L19.831 9.57746L15.6056 5.40845ZM8.39437 18.5915V15.6056H13.1831V13.1831H8.39437V10.1972L4.16901 14.4225L8.39437 18.5915ZM3.5493 20.507C1.1831 18.1408 0 15.3052 0 12C0 8.69484 1.1831 5.87793 3.5493 3.5493C5.87793 1.1831 8.69484 -3.46452e-07 12 -3.46452e-07C15.3052 -3.46452e-07 18.1408 1.1831 20.507 3.5493C22.8357 5.87793 24 8.69484 24 12C24 15.3052 22.8357 18.1408 20.507 20.507C18.1408 22.8357 15.3052 24 12 24C8.69484 24 5.87793 22.8357 3.5493 20.507Z" fill="#808080"/>
</svg>
