<svg width="70" height="70" viewBox="0 0 70 70" fill="none" xmlns="http://www.w3.org/2000/svg">
<rect x="0.5" y="0.5" width="69" height="69" rx="1.5" fill="#F5F5F5" stroke="#757575" stroke-dasharray="4 4"/>
<path d="M23.3527 44.4688V50.2695C23.3488 51.0742 23.0949 51.7324 22.591 52.2441C22.091 52.7559 21.4113 53.043 20.552 53.1055L20.2531 53.1172C19.3195 53.1172 18.5754 52.8652 18.0207 52.3613C17.466 51.8574 17.1848 51.1641 17.177 50.2812V44.4688H18.2902V50.2461C18.2902 50.8633 18.4602 51.3438 18.8 51.6875C19.1399 52.0273 19.6242 52.1973 20.2531 52.1973C20.8899 52.1973 21.3762 52.0273 21.7121 51.6875C22.052 51.3477 22.2219 50.8691 22.2219 50.252V44.4688H23.3527ZM30.3617 49.9004C30.3617 50.8652 30.141 51.6426 29.6996 52.2324C29.2582 52.8223 28.6605 53.1172 27.9066 53.1172C27.1371 53.1172 26.5316 52.873 26.0902 52.3848V55.4375H25.0062V46.6602H25.9964L26.0492 47.3633C26.4906 46.8164 27.1039 46.543 27.889 46.543C28.6507 46.543 29.2523 46.8301 29.6937 47.4043C30.139 47.9785 30.3617 48.7773 30.3617 49.8008V49.9004ZM29.2777 49.7773C29.2777 49.0625 29.1254 48.498 28.8207 48.084C28.516 47.6699 28.098 47.4629 27.5668 47.4629C26.9105 47.4629 26.4183 47.7539 26.0902 48.3359V51.3652C26.4144 51.9434 26.9105 52.2324 27.5785 52.2324C28.098 52.2324 28.5101 52.0273 28.8148 51.6172C29.1234 51.2031 29.2777 50.5898 29.2777 49.7773ZM32.9702 53H31.8862V44H32.9702V53ZM34.4714 49.7715C34.4714 49.1504 34.5924 48.5918 34.8346 48.0957C35.0807 47.5996 35.4206 47.2168 35.8542 46.9473C36.2917 46.6777 36.7897 46.543 37.3483 46.543C38.2116 46.543 38.9089 46.8418 39.4401 47.4395C39.9753 48.0371 40.2428 48.832 40.2428 49.8242V49.9004C40.2428 50.5176 40.1237 51.0723 39.8854 51.5645C39.651 52.0527 39.3132 52.4336 38.8717 52.707C38.4342 52.9805 37.9303 53.1172 37.36 53.1172C36.5007 53.1172 35.8034 52.8184 35.2682 52.2207C34.737 51.623 34.4714 50.832 34.4714 49.8477V49.7715ZM35.5612 49.9004C35.5612 50.6035 35.7233 51.168 36.0475 51.5938C36.3757 52.0195 36.8132 52.2324 37.36 52.2324C37.9108 52.2324 38.3483 52.0176 38.6725 51.5879C38.9967 51.1543 39.1589 50.5488 39.1589 49.7715C39.1589 49.0762 38.9928 48.5137 38.6608 48.084C38.3327 47.6504 37.8952 47.4336 37.3483 47.4336C36.8132 47.4336 36.3815 47.6465 36.0534 48.0723C35.7253 48.498 35.5612 49.1074 35.5612 49.9004ZM45.5643 53C45.5018 52.875 45.451 52.6523 45.4119 52.332C44.908 52.8555 44.3065 53.1172 43.6072 53.1172C42.9822 53.1172 42.4686 52.9414 42.0662 52.5898C41.6678 52.2344 41.4686 51.7852 41.4686 51.2422C41.4686 50.582 41.7186 50.0703 42.2186 49.707C42.7225 49.3398 43.4295 49.1562 44.3397 49.1562H45.3944V48.6582C45.3944 48.2793 45.2811 47.9785 45.0545 47.7559C44.8279 47.5293 44.494 47.416 44.0526 47.416C43.6658 47.416 43.3416 47.5137 43.0799 47.709C42.8182 47.9043 42.6873 48.1406 42.6873 48.418H41.5975C41.5975 48.1016 41.7088 47.7969 41.9315 47.5039C42.158 47.207 42.4627 46.9727 42.8455 46.8008C43.2322 46.6289 43.6561 46.543 44.117 46.543C44.8475 46.543 45.4197 46.7266 45.8338 47.0938C46.2479 47.457 46.4627 47.959 46.4783 48.5996V51.5176C46.4783 52.0996 46.5526 52.5625 46.701 52.9062V53H45.5643ZM43.7654 52.1738C44.1053 52.1738 44.4276 52.0859 44.7322 51.9102C45.0369 51.7344 45.2576 51.5059 45.3944 51.2246V49.9238H44.5447C43.2166 49.9238 42.5526 50.3125 42.5526 51.0898C42.5526 51.4297 42.6658 51.6953 42.8924 51.8867C43.119 52.0781 43.41 52.1738 43.7654 52.1738ZM47.9619 49.7773C47.9619 48.8047 48.1924 48.0234 48.6533 47.4336C49.1142 46.8398 49.7177 46.543 50.4638 46.543C51.206 46.543 51.7939 46.7969 52.2275 47.3047V44H53.3115V53H52.3154L52.2627 52.3203C51.8291 52.8516 51.2256 53.1172 50.4521 53.1172C49.7177 53.1172 49.1181 52.8164 48.6533 52.2148C48.1924 51.6133 47.9619 50.8281 47.9619 49.8594V49.7773ZM49.0459 49.9004C49.0459 50.6191 49.1943 51.1816 49.4912 51.5879C49.7881 51.9941 50.1982 52.1973 50.7216 52.1973C51.4091 52.1973 51.9111 51.8887 52.2275 51.2715V48.3594C51.9033 47.7617 51.4052 47.4629 50.7334 47.4629C50.2021 47.4629 49.7881 47.668 49.4912 48.0781C49.1943 48.4883 49.0459 49.0957 49.0459 49.9004Z" fill="#9E9E9E"/>
<path fill-rule="evenodd" clip-rule="evenodd" d="M41.5011 24.1325C41.3791 24.1324 41.2583 24.1563 41.1456 24.203C41.0329 24.2496 40.9305 24.318 40.8443 24.4042C40.758 24.4905 40.6896 24.5929 40.643 24.7056C40.5964 24.8183 40.5724 24.9391 40.5725 25.0611V25.9896H29.4263V25.0611C29.4267 24.9389 29.4029 24.8179 29.3564 24.7049C29.3099 24.592 29.2416 24.4893 29.1553 24.4028C29.0691 24.3163 28.9666 24.2477 28.8538 24.2009C28.7409 24.1541 28.62 24.13 28.4978 24.13C28.3757 24.13 28.2547 24.1541 28.1419 24.2009C28.0291 24.2477 27.9266 24.3163 27.8404 24.4028C27.7541 24.4893 27.6858 24.592 27.6393 24.7049C27.5928 24.8179 27.569 24.9389 27.5693 25.0611V26.9188C27.5693 27.0408 27.5933 27.1615 27.6399 27.2742C27.6866 27.3869 27.755 27.4893 27.8412 27.5755C27.9274 27.6617 28.0298 27.7301 28.1425 27.7768C28.2551 27.8235 28.3759 27.8475 28.4978 27.8474H41.5011C41.6231 27.8475 41.7439 27.8236 41.8566 27.777C41.9694 27.7303 42.0718 27.662 42.1581 27.5757C42.2444 27.4895 42.3129 27.3871 42.3596 27.2744C42.4063 27.1616 42.4303 27.0408 42.4303 26.9188V25.0611C42.4303 24.9391 42.4063 24.8182 42.3596 24.7055C42.3129 24.5928 42.2444 24.4904 42.1581 24.4042C42.0718 24.3179 41.9694 24.2495 41.8566 24.2029C41.7439 24.1563 41.6231 24.1324 41.5011 24.1325ZM32.87 17.3585L34.0706 16.1572V23.2032C34.0702 23.3254 34.094 23.4465 34.1405 23.5595C34.187 23.6725 34.2554 23.7752 34.3417 23.8617C34.428 23.9482 34.5305 24.0169 34.6434 24.0637C34.7562 24.1106 34.8772 24.1347 34.9994 24.1347C35.1216 24.1347 35.2426 24.1106 35.3555 24.0637C35.4684 24.0169 35.5709 23.9482 35.6572 23.8617C35.7435 23.7752 35.8118 23.6725 35.8584 23.5595C35.9049 23.4465 35.9287 23.3254 35.9283 23.2032V16.1572L37.1296 17.3585C37.2159 17.445 37.3183 17.5136 37.431 17.5605C37.5438 17.6073 37.6647 17.6315 37.7868 17.6315C37.9089 17.6316 38.0298 17.6076 38.1426 17.5609C38.2554 17.5142 38.3579 17.4457 38.4443 17.3593C38.5306 17.273 38.599 17.1704 38.6457 17.0576C38.6923 16.9447 38.7162 16.8238 38.7161 16.7017C38.716 16.5796 38.6917 16.4587 38.6448 16.346C38.5979 16.2332 38.5292 16.1309 38.4427 16.0447L35.6564 13.2583C35.5701 13.1721 35.4678 13.1037 35.3551 13.057C35.2425 13.0104 35.1218 12.9863 34.9998 12.9863C34.8779 12.9863 34.7571 13.0104 34.6445 13.057C34.5318 13.1037 34.4295 13.1721 34.3433 13.2583L31.5562 16.0447C31.3827 16.2191 31.2855 16.4551 31.2858 16.7011C31.2861 16.9471 31.384 17.1829 31.5579 17.3568C31.7318 17.5307 31.9676 17.6286 32.2136 17.6289C32.4596 17.6292 32.6956 17.532 32.87 17.3585Z" fill="#F59F00"/>
</svg>
