<svg width="24" height="24" viewBox="0 0 24 24" fill="none" xmlns="http://www.w3.org/2000/svg">
<path fill-rule="evenodd" clip-rule="evenodd" d="M12 24C18.0751 24 23 19.3577 23 13.7679C23 7.90438 18.5849 4.58514 14.9683 1.86616C14.2754 1.34525 13.6118 0.84637 13.0142 0.355852C12.4359 -0.11886 11.5642 -0.118985 10.9876 0.357685C10.3993 0.843984 9.74703 1.34066 9.06577 1.85942C5.44286 4.61818 1 8.00132 1 13.7679C1 19.4189 5.92487 24 12 24ZM12.1034 6.7438L7.83926 13.3708C7.555 13.8126 7.88436 14.3838 8.42339 14.3838H9.9375C10.3172 14.3838 10.625 14.6807 10.625 15.0469V19.6844C10.625 20.3518 11.5318 20.6012 11.8966 20.0341L16.1607 13.4071C16.445 12.9653 16.1156 12.3942 15.5766 12.3942H14.0625C13.6828 12.3942 13.375 12.0973 13.375 11.731V7.09354C13.375 6.42616 12.4682 6.17677 12.1034 6.7438Z" fill="#808080"/>
</svg>
