<svg
    width="24"
    height="24"
    viewBox="0 0 24 24"
    fill="none"
    xmlns="http://www.w3.org/2000/svg"
  >
    <path
      d="M11.8721 8.32099H12.0256C12.9126 8.32099 13.6802 8.63374 14.3284 9.25926C14.9765 9.88477 15.3006 10.6255 15.3006 11.4815V11.679L11.8721 8.32099ZM7.16418 9.16049C6.7548 9.95062 6.55011 10.7243 6.55011 11.4815C6.55011 12.93 7.07889 14.1811 8.13646 15.2346C9.22815 16.2551 10.5245 16.7654 12.0256 16.7654C12.8102 16.7654 13.6119 16.5679 14.4307 16.1728L12.742 14.5432C12.4691 14.6091 12.2303 14.642 12.0256 14.642C11.1386 14.642 10.371 14.3292 9.72281 13.7037C9.07463 13.0782 8.75053 12.3374 8.75053 11.4815C8.75053 11.284 8.78465 11.0535 8.85288 10.7901L7.16418 9.16049ZM1.1258 3.33333L2.50746 2L21.8507 20.6667L20.4691 22C20.2985 21.8354 19.7527 21.3251 18.8316 20.4691C17.9446 19.6132 17.2623 18.9547 16.7846 18.4938C15.3177 19.0864 13.7313 19.3827 12.0256 19.3827C9.33049 19.3827 6.89126 18.6584 4.70789 17.2099C2.52452 15.7613 0.955224 13.8519 0 11.4815C0.852878 9.44033 2.21748 7.69547 4.09382 6.24691C3.68444 5.85185 3.10448 5.29218 2.35394 4.5679C1.63753 3.84362 1.22815 3.4321 1.1258 3.33333ZM12.0256 6.19753C11.3433 6.19753 10.678 6.32922 10.0299 6.59259L7.67591 4.32099C9.0064 3.82716 10.4563 3.58025 12.0256 3.58025C14.7207 3.58025 17.1429 4.30453 19.2921 5.75309C21.4755 7.20165 23.0448 9.11111 24 11.4815C23.1812 13.4239 21.936 15.0864 20.2644 16.4691L17.0917 13.4074C17.3646 12.7819 17.5011 12.1399 17.5011 11.4815C17.5011 10.0329 16.9552 8.79835 15.8635 7.77778C14.806 6.72428 13.5267 6.19753 12.0256 6.19753Z"
      fill='#808080'
    />
  </svg>