<svg
    width="24"
    height="24"
    viewBox="0 0 24 24"
    fill="none"
    xmlns="http://www.w3.org/2000/svg"
  >
    <path
      d="M9.70213 9.75C10.3489 9.11667 11.1149 8.8 12 8.8C12.8851 8.8 13.6511 9.11667 14.2979 9.75C14.9447 10.3833 15.2681 11.1333 15.2681 12C15.2681 12.8667 14.9447 13.6167 14.2979 14.25C13.6511 14.8833 12.8851 15.2 12 15.2C11.1149 15.2 10.3489 14.8833 9.70213 14.25C9.05532 13.6167 8.73191 12.8667 8.73191 12C8.73191 11.1333 9.05532 10.3833 9.70213 9.75ZM8.11915 15.8C9.20851 16.8333 10.5021 17.35 12 17.35C13.4979 17.35 14.7745 16.8333 15.8298 15.8C16.9191 14.7333 17.4638 13.4667 17.4638 12C17.4638 10.5333 16.9191 9.28333 15.8298 8.25C14.7745 7.18333 13.4979 6.65 12 6.65C10.5021 6.65 9.20851 7.18333 8.11915 8.25C7.06383 9.28333 6.53617 10.5333 6.53617 12C6.53617 13.4667 7.06383 14.7333 8.11915 15.8ZM4.69787 6.2C6.8766 4.73333 9.31064 4 12 4C14.6894 4 17.1234 4.73333 19.3021 6.2C21.4809 7.66667 23.0468 9.6 24 12C23.0468 14.4 21.4809 16.3333 19.3021 17.8C17.1234 19.2667 14.6894 20 12 20C9.31064 20 6.8766 19.2667 4.69787 17.8C2.51915 16.3333 0.953191 14.4 0 12C0.953191 9.6 2.51915 7.66667 4.69787 6.2Z"
      fill='#808080'
    />
  </svg>