<svg width="25" height="25" viewBox="0 0 25 25" fill="none" xmlns="http://www.w3.org/2000/svg">
<path d="M0.916504 24.0835L2.57742 18.0626C1.49785 16.1941 0.916504 14.1179 0.916504 11.9587C0.916504 5.39804 6.31455 0 12.9167 0C19.5189 0 25 5.39804 25 11.9587C25 18.5193 19.5189 24.0835 12.9167 24.0835C10.8406 24.0835 8.84745 23.4191 7.06193 22.4226L0.916504 24.0835Z" fill="#EDEDED"/>
<path d="M7.39437 20.2632L7.76808 20.4708C9.30444 21.4259 11.09 22.0072 12.9585 22.0072C18.398 22.0072 22.9241 17.4812 22.9241 11.9586C22.9241 6.43596 18.398 2.07605 12.917 2.07605C7.4359 2.07605 2.99292 6.47749 2.99292 11.9586C2.99292 13.8686 3.53273 15.7372 4.52928 17.3151L4.77844 17.6888L3.82342 21.1767L7.39437 20.2632Z" fill="#55CD6C"/>
<path d="M9.7197 6.39456L8.93078 6.35303C8.68162 6.35303 8.43251 6.4361 8.26642 6.60219C7.8927 6.93437 7.26987 7.5572 7.10378 8.38771C6.81313 9.63342 7.26987 11.1282 8.34949 12.6231C9.4291 14.1179 11.5053 16.5262 15.1593 17.5643C16.3219 17.8965 17.2354 17.6889 17.9829 17.2321C18.5642 16.8584 18.9379 16.2771 19.0625 15.6542L19.1871 15.0729C19.2286 14.9068 19.1455 14.6992 18.9794 14.6162L16.3635 13.412C16.1974 13.3289 15.9897 13.3705 15.8652 13.5365L14.8271 14.8653C14.744 14.9483 14.6195 14.9898 14.4949 14.9483C13.789 14.6992 11.4222 13.7026 10.135 11.2113C10.0934 11.0867 10.0934 10.9621 10.1765 10.8791L11.173 9.75798C11.2561 9.63342 11.2976 9.46733 11.2561 9.34272L10.0519 6.64372C10.0104 6.51912 9.8858 6.39456 9.7197 6.39456Z" fill="#FEFEFE"/>
</svg>
